<svg width="379" height="357" viewBox="0 0 379 357" fill="none" xmlns="http://www.w3.org/2000/svg">
<g filter="url(#filter0_di)">
<path fill-rule="evenodd" clip-rule="evenodd" d="M115.121 41.1766C112.374 41.506 112.282 42.9349 114.664 48.2845C115.003 49.0449 117.679 56.1564 117.679 56.2947C117.679 56.3759 117.797 56.6945 117.94 57.0042C118.084 57.313 118.729 58.9722 119.375 60.6903C120.022 62.4083 120.629 63.9532 120.726 64.1237C120.822 64.2942 120.901 64.5235 120.901 64.6324C120.901 64.7413 121.018 65.084 121.161 65.3937C121.305 65.7025 122.209 67.9641 123.171 70.4185C124.133 72.8729 125.039 75.1345 125.185 75.4433C125.33 75.753 125.449 76.1296 125.449 76.2804C125.449 76.4322 125.534 76.6053 125.638 76.666C125.743 76.7267 125.828 76.8998 125.828 77.0516C125.828 77.2024 125.944 77.579 126.087 77.8887C126.229 78.1975 126.581 79.0534 126.869 79.7898C127.157 80.5261 127.504 81.3695 127.639 81.664C127.773 81.9585 128.073 82.7618 128.307 83.449C128.54 84.1362 128.802 84.7744 128.89 84.8681C128.977 84.9609 129.049 85.1501 129.049 85.2876C129.049 85.425 129.17 85.79 129.317 86.0997C129.464 86.4085 129.765 87.1841 129.986 87.8223C130.206 88.4604 130.461 89.1432 130.552 89.3395C130.643 89.5359 131.033 90.5399 131.418 91.5708C131.804 92.6016 132.188 93.6057 132.271 93.802C132.354 93.9984 132.738 95.0024 133.124 96.0333C133.509 97.0641 133.893 98.0682 133.976 98.2645C134.061 98.4609 134.318 99.1436 134.548 99.7818C134.779 100.42 135.085 101.195 135.23 101.504C135.374 101.814 135.492 102.157 135.492 102.266C135.492 102.374 135.573 102.604 135.671 102.774C135.77 102.945 136.029 103.606 136.246 104.244C136.463 104.882 136.716 105.565 136.807 105.762C136.898 105.958 137.455 107.484 138.043 109.153C138.631 110.822 139.186 112.348 139.274 112.545C139.363 112.741 139.623 113.424 139.851 114.062C140.079 114.7 140.339 115.383 140.426 115.579C140.514 115.775 140.813 116.579 141.09 117.364C141.799 119.369 143.049 122.612 143.371 123.281C143.52 123.591 143.641 123.968 143.641 124.118C143.641 124.27 143.726 124.443 143.83 124.504C143.935 124.565 144.022 124.75 144.024 124.916C144.027 125.082 144.28 125.7 144.588 126.289C144.896 126.878 145.15 127.453 145.153 127.566C145.155 127.68 145.322 128.081 145.525 128.459C145.726 128.836 146.158 129.707 146.484 130.395C146.81 131.082 147.227 131.925 147.411 132.269C147.595 132.612 148.024 133.697 148.365 134.679C149.322 137.428 151.805 138.449 153.305 136.711C153.358 136.65 153.891 136.341 154.49 136.024C155.09 135.708 155.579 135.375 155.579 135.286C155.579 135.197 155.688 135.125 155.821 135.125C155.955 135.125 156.33 134.904 156.656 134.634C156.981 134.363 157.527 133.942 157.87 133.697C159.402 132.601 161.358 130.995 163.708 128.904C167.526 125.506 167.763 125.298 169.062 124.205C170.549 122.955 170.991 122.592 172.042 121.765C172.498 121.406 173.087 120.938 173.353 120.724L173.834 120.336L174.181 120.752C174.761 121.446 176.904 122.502 176.508 121.898C176.346 121.651 176.998 121.968 178.069 122.657C178.505 122.936 178.913 123.165 178.975 123.165C179.039 123.165 179.759 123.607 180.577 124.147C181.395 124.687 182.146 125.129 182.247 125.129C182.347 125.129 182.592 125.297 182.791 125.504C182.989 125.711 183.407 126.003 183.72 126.154C184.033 126.306 184.502 126.584 184.762 126.773C185.023 126.962 186.089 127.673 187.131 128.354C189.03 129.595 189.216 129.718 190.447 130.559C190.812 130.808 191.388 131.149 191.727 131.316C192.066 131.483 192.342 131.688 192.342 131.769C192.342 131.851 192.641 132.052 193.006 132.215C193.37 132.379 193.669 132.577 193.669 132.654C193.669 132.732 193.929 132.922 194.248 133.077C194.565 133.232 194.971 133.48 195.148 133.628C195.463 133.892 196.257 134.447 197.499 135.27C197.842 135.498 198.804 136.159 199.638 136.739C200.472 137.319 201.261 137.796 201.391 137.798C201.522 137.8 201.628 137.882 201.628 137.979C201.628 138.076 202.097 138.406 202.67 138.71C203.243 139.015 203.712 139.322 203.712 139.393C203.712 139.464 204.063 139.707 204.49 139.934C205.701 140.574 206.555 141.358 206.555 141.827C206.555 142.057 206.762 142.47 207.017 142.746L207.48 143.247L208.633 142.176C209.811 141.084 210.039 140.642 210.246 139.052C210.304 138.61 210.388 138.128 210.434 137.981C210.479 137.834 210.569 137.151 210.632 136.464C210.696 135.776 210.775 135.013 210.808 134.768C210.84 134.522 210.93 133.639 211.007 132.804C211.084 131.97 211.174 131.076 211.207 130.819C211.241 130.562 211.363 129.357 211.477 128.142C211.592 126.926 211.722 125.571 211.766 125.129C211.811 124.687 211.893 123.803 211.95 123.165C212.007 122.527 212.094 121.644 212.144 121.202C212.193 120.76 212.283 119.635 212.344 118.703C212.405 117.77 212.486 116.726 212.525 116.382C212.565 116.039 212.648 115.075 212.712 114.24C212.775 113.406 212.91 111.88 213.01 110.849C213.112 109.818 213.238 108.493 213.291 107.904C213.344 107.314 213.424 106.471 213.469 106.029C213.956 101.244 213.987 100.669 213.78 100.433C213.603 100.233 213.65 100.203 214.026 100.271C214.515 100.359 216.598 99.5613 216.598 99.2864C216.598 99.199 216.832 99.0178 217.12 98.8839C217.407 98.7491 217.896 98.4671 218.209 98.2565C219.013 97.7156 223.184 95.8592 224.178 95.5995C224.642 95.4781 224.872 95.3978 225.931 94.9864C226.218 94.8748 226.645 94.7124 226.879 94.624C227.443 94.4125 229.575 93.7306 230.527 93.4557C231.236 93.2513 231.456 93.179 232.422 92.8292C232.63 92.7533 233.312 92.5454 233.938 92.366C234.563 92.1875 235.16 91.9849 235.264 91.9162C235.368 91.8465 235.752 91.7314 236.117 91.66C236.482 91.5886 236.865 91.4717 236.97 91.4012C237.074 91.3298 237.671 91.1325 238.296 90.9621C238.922 90.7907 239.604 90.5854 239.812 90.5051C240.338 90.3025 242.516 89.6189 243.318 89.4047C243.683 89.3065 244.365 89.0593 244.834 88.8549C245.303 88.6505 246.097 88.4443 246.599 88.397C247.675 88.2944 248.023 87.9151 248.024 86.8405C248.024 86.4478 248.045 85.8213 248.071 85.4482C248.127 84.6191 247.856 84.3478 246.729 84.1032C245.072 83.7453 244.167 83.5124 243.88 83.3705C243.721 83.291 243.294 83.1714 242.932 83.1036C242.571 83.0358 242.062 82.9117 241.802 82.8287C241.541 82.7448 240.433 82.4235 239.338 82.1138C238.244 81.8041 237.218 81.4864 237.058 81.407C236.899 81.3275 236.472 81.2079 236.11 81.141C235.749 81.0732 235.283 80.9464 235.075 80.8572C234.866 80.7688 233.331 80.2833 231.664 79.7773C228.504 78.8196 228.181 78.7143 227.4 78.3921C227.139 78.285 226.457 78.0663 225.884 77.9066C225.311 77.7468 224.628 77.5317 224.368 77.4291C223.447 77.0667 223.129 76.9552 222.378 76.7303C221.961 76.6044 221.535 76.45 221.431 76.3858C221.326 76.3215 220.985 76.2153 220.673 76.1484C219.931 75.9922 217.546 75.1559 216.743 74.7712C216.562 74.6838 216.284 74.6133 216.125 74.6133C215.965 74.6133 215.687 74.5401 215.506 74.4508C215.325 74.3607 214.751 74.1536 214.23 73.9903C213.709 73.827 213.069 73.6083 212.808 73.5048C212.548 73.4012 212.121 73.2352 211.861 73.1371C211.6 73.0389 211.217 72.8925 211.008 72.8113C210.8 72.731 210.118 72.5096 209.492 72.3204C208.443 72.0036 207.281 71.6064 206.223 71.2048C205.989 71.1164 205.584 70.9629 205.323 70.8648C205.063 70.7666 204.636 70.6059 204.376 70.5078C204.115 70.4096 203.711 70.257 203.476 70.1677C203.242 70.0794 202.58 69.8464 202.007 69.651C199.304 68.7263 195.858 67.4973 194.901 67.1163C194.276 66.8672 193.614 66.6165 192.958 66.3782C192.724 66.2934 192.341 66.1541 192.106 66.0694C191.871 65.9837 191.466 65.8293 191.205 65.7248C190.945 65.6213 189.154 64.96 187.226 64.2567C185.298 63.5525 183.422 62.8564 183.057 62.7082C182.692 62.56 182.223 62.3744 182.015 62.2968C181.806 62.2182 181.231 61.9853 180.737 61.7791C180.244 61.5729 179.795 61.4043 179.741 61.4043C179.687 61.4043 179.238 61.2347 178.744 61.0267C178.25 60.8188 177.569 60.5376 177.23 60.402C176.891 60.2663 176.295 60.0262 175.903 59.8692C175.513 59.7112 175.022 59.5184 174.814 59.4408C174.605 59.3622 174.03 59.1293 173.536 58.9231C173.043 58.7169 172.509 58.5483 172.352 58.5483C172.195 58.5483 172.066 58.4679 172.066 58.3698C172.066 58.2716 171.853 58.1912 171.592 58.1912C171.332 58.1912 171.118 58.1306 171.118 58.0565C171.118 57.9815 170.756 57.8146 170.313 57.6852C169.524 57.4541 169.24 57.3469 167.518 56.6267C167.049 56.4303 166.239 56.1367 165.718 55.9743C165.197 55.811 164.514 55.57 164.202 55.4388C162.844 54.8667 162.144 54.6052 159.369 53.6359C157.754 53.071 156.352 52.5399 156.252 52.4552C156.154 52.3704 155.94 52.2999 155.778 52.2999C155.617 52.299 155.24 52.1785 154.942 52.0321C154.643 51.8848 154.319 51.7653 154.221 51.7653C154.123 51.7653 153.684 51.6135 153.248 51.427C152.811 51.2414 151.429 50.7558 150.179 50.3489C148.928 49.9419 147.691 49.5224 147.431 49.418C146.905 49.2065 146.598 49.1118 138.809 46.7655C137.35 46.3264 132.048 44.9457 121.375 42.2262C120.437 41.987 119.165 41.6264 118.55 41.4239C117.51 41.0811 116.516 41.0097 115.121 41.1766ZM119.574 48.3979C121.315 49.8696 132.287 58.9677 142.03 67.0199C147.149 71.2503 148.818 72.6721 154.916 78.003C163.897 85.8525 170.261 91.4797 173.577 94.5035C175.508 96.2644 179.326 99.6693 182.061 102.071L187.034 106.438L185.851 107.306C185.2 107.783 182.536 109.617 179.93 111.382C171.532 117.069 169.256 118.851 161.478 125.827C156.445 130.341 155.131 131.444 152.803 133.114L151.266 134.215L151.147 133.555C151.082 133.191 150.81 132.412 150.543 131.823C149.956 130.523 146.572 121.725 143.987 114.776C139.092 101.62 137.95 98.5822 134.86 90.4998C128.711 74.4116 120.492 54.0697 117.699 48.031C117.271 47.1055 116.921 46.3085 116.921 46.2594C116.921 46.1595 117.026 46.2434 119.574 48.3979ZM131.85 48.1203C144.981 51.8143 148.302 52.9933 168.371 61.0919C187.077 68.6406 186.993 68.6076 198.501 72.7756C213.546 78.2234 231.939 84.3852 237.601 85.873C238.4 86.0837 239.128 86.297 239.219 86.3487C239.31 86.3996 236.368 87.4233 232.681 88.6228C219.387 92.9479 214.413 95.3862 213.184 98.1833L212.953 98.7072L212.435 98.0325C211.79 97.1926 211.892 97.2551 206.744 94.6115C197.913 90.0758 194.616 88.1007 182.333 79.9861C168.834 71.0682 161.577 66.6513 143.451 56.3215C133.447 50.6193 131.829 49.7152 128.386 47.8927C127.031 47.176 126.032 46.5896 126.165 46.5888C126.299 46.5888 128.857 47.2778 131.85 48.1203ZM127.154 50.248C134.578 54.3901 135.303 54.8515 135.303 55.4361C135.303 55.6574 135.47 56.3447 135.674 56.9632C135.878 57.5808 136.017 58.1127 135.984 58.1448C135.896 58.2278 124.801 49.2698 124.714 49.0449C124.674 48.9432 124.716 48.8985 124.808 48.9458C124.9 48.9931 125.956 49.5795 127.154 50.248ZM137.913 56.4384C138.614 56.8489 139.221 57.2077 139.262 57.2372C139.369 57.313 140.201 61.481 140.126 61.5578C140.091 61.5935 139.593 61.2338 139.022 60.759C137.98 59.8933 137.618 59.2025 136.628 56.1831C136.423 55.5584 136.403 55.5548 137.913 56.4384ZM142.174 58.9365C142.358 59.0668 142.547 59.4943 142.595 59.887C142.643 60.2797 142.939 61.4801 143.251 62.5547C143.932 64.8975 143.961 64.8448 142.639 63.6801L141.575 62.743L141.3 60.7795C141.147 59.6996 140.96 58.667 140.883 58.4858C140.733 58.1315 141.338 58.3421 142.174 58.9365ZM145.502 60.9125C146.291 61.4194 146.319 61.4685 146.272 62.2869C146.246 62.7537 146.319 63.3686 146.433 63.6534C146.548 63.9381 146.817 64.7333 147.03 65.4205C147.456 66.7941 147.874 67.4733 148.294 67.4733C148.675 67.4733 148.641 67.019 148.082 64.6735C147.467 62.0897 147.488 61.9906 148.52 62.6145C149.199 63.025 149.323 63.1919 149.325 63.6926C149.327 64.9002 150.856 69.7893 151.437 70.4488C152.181 71.2932 152.109 70.0196 151.217 66.5897C150.9 65.367 150.664 64.2611 150.693 64.1326C150.783 63.7408 153.305 65.4401 153.305 65.8917C153.305 66.0979 153.61 67.4822 153.985 68.9673C154.358 70.4524 154.693 72.1018 154.73 72.631L154.798 73.594L153.915 72.8095C153.429 72.3784 152.986 71.9786 152.931 71.9224C152.876 71.8652 152.524 71.6243 152.148 71.3869C151.77 71.1486 150.092 69.8321 148.418 68.4604L145.374 65.9658L144.948 64.2656C144.715 63.3303 144.5 62.3637 144.471 62.1183C144.442 61.8728 144.289 61.2891 144.133 60.8223L143.847 59.9718L144.265 60.1789C144.495 60.2931 145.052 60.6224 145.502 60.9125ZM161.8 70.605C161.833 70.6318 161.718 70.9138 161.543 71.2316C161.131 71.9831 161.271 73.4941 162.116 77.3782C162.857 80.7849 162.899 80.693 161.297 79.1945L160.013 77.9949L159.573 75.7235C158.599 70.6916 157.911 68.5443 157.273 68.5443C156.622 68.5443 156.635 69.0432 157.364 72.1143C157.752 73.7556 158.043 75.3692 158.01 75.7003L157.948 76.3028L157.161 75.6307C156.446 75.0211 156.361 74.8569 156.242 73.8493C156.085 72.5391 155.555 70.0133 155.017 68.0284C154.805 67.2483 154.632 66.5263 154.632 66.4237C154.632 66.2916 161.128 70.0811 161.8 70.605ZM167.897 74.4115C173.184 77.7557 172.918 77.5505 172.854 78.2457C172.826 78.5617 173.013 79.7826 173.272 80.9598C173.532 82.137 174.052 84.728 174.428 86.7182C175.264 91.1299 175.52 91.859 176.154 91.6306C176.613 91.4646 175.796 86.1997 174.365 80.1021C174.164 79.2435 174.046 78.5403 174.104 78.5403C174.383 78.5403 176.808 80.2414 176.881 80.4886C177.021 80.9687 177.358 83.6409 177.758 87.4653C178.137 91.0799 178.579 94.1037 178.809 94.6704C179.048 95.255 178.563 94.9319 177.083 93.5209C176.252 92.7283 173.942 90.6372 171.949 88.8736L168.327 85.6678L167.818 82.5949C167.236 79.0847 165.912 73.752 165.53 73.3843C164.643 72.5284 164.488 73.6288 165.143 76.1305C165.661 78.1056 166.63 83.4597 166.524 83.7578C166.251 84.5298 164.781 82.4316 164.35 80.6564C163.611 77.6067 162.833 73.8787 162.696 72.739C162.626 72.15 162.521 71.5154 162.463 71.328C162.329 70.8969 162.454 70.9683 167.897 74.4115ZM168.892 77.0641C168.488 77.197 168.624 78.4091 169.421 81.7988C170.621 86.895 171.118 88.2426 171.679 87.916C172.007 87.725 171.861 86.795 170.721 81.8425C169.521 76.6249 169.6 76.8311 168.892 77.0641ZM179.478 82.0362C179.987 82.3878 180.404 82.702 180.404 82.7341C180.404 82.7662 180.534 83.4222 180.692 84.1916C180.851 84.9618 181.151 87.3983 181.36 89.6073C181.954 95.903 182.205 96.9258 183.156 96.9258C183.73 96.9258 183.744 96.7151 183.345 94.0698C183.19 93.0389 182.886 90.83 182.67 89.161C182.454 87.492 182.168 85.5839 182.034 84.9216C181.9 84.2594 181.825 83.7168 181.868 83.7168C182.011 83.7168 183.678 84.8368 184.034 85.1724C184.294 85.4179 184.383 85.7686 184.383 86.5513C184.383 87.6116 185.452 95.5834 186.013 98.7108C186.357 100.624 186.734 101.632 187.068 101.527C187.686 101.333 187.685 100.876 187.057 96.8017C186.308 91.9429 185.537 86.3255 185.61 86.2532C185.639 86.2247 186.504 86.7495 187.534 87.4197L189.405 88.6371L189.447 91.7555C189.488 94.8123 189.738 97.0213 190.627 102.181C190.845 103.443 191.001 104.496 190.972 104.522C190.25 105.178 179.216 96.2903 179.853 95.5665C180.002 95.3978 180.038 94.9667 179.96 94.2893C179.667 91.7225 178.489 82.4958 178.389 81.9764C178.248 81.2454 178.343 81.2508 179.478 82.0362ZM228.337 84.927C227.757 85.292 227.043 85.7722 226.748 85.9926C226.301 86.3273 225.979 86.3943 224.808 86.3943C222.936 86.3943 221.126 86.845 219.937 87.6063C218.831 88.3149 215.323 90.3364 213.123 91.5333C211.55 92.3883 211.295 92.6614 211.673 93.0907C212.297 93.7975 215.007 92.5971 220.214 89.3074C221.776 88.3203 222.89 88.0008 224.765 88.0008C226.732 88.0008 227.137 87.8348 229.496 86.0658C230.089 85.6213 230.245 84.8618 229.826 84.4665C229.519 84.1773 229.532 84.1728 228.337 84.927ZM192.437 90.5703C193.063 90.9674 195.152 92.1902 197.08 93.287L200.586 95.2809L200.902 98.2895C201.076 99.9451 201.311 102.946 201.425 104.958C202.098 116.806 202.388 118.703 203.533 118.703C204.104 118.703 204.151 118.351 203.83 116.528C203.518 114.763 203.29 112.118 202.944 106.257C202.827 104.271 202.588 101.198 202.411 99.4292C202.201 97.3086 202.158 96.2127 202.286 96.2153C202.393 96.2171 203.205 96.6009 204.091 97.0686L205.702 97.9173L205.838 104.071C205.996 111.272 206.28 117.59 206.465 118.033C206.631 118.43 207.286 118.44 207.446 118.049C207.557 117.775 207.273 107.039 206.995 101.043L206.875 98.4662L207.805 98.9678C209.207 99.7255 209.147 99.5569 209.365 103.416C209.475 105.365 209.612 107.006 209.67 107.06C209.97 107.341 210.066 106.605 210.126 103.605C210.162 101.797 210.252 100.317 210.327 100.317C210.401 100.317 210.603 100.418 210.774 100.54C211.117 100.785 211.148 100.367 210.372 105.762C209.847 109.408 209.515 112.526 208.735 121.113C208.002 129.18 207.125 137.674 207.014 137.784C206.818 137.976 206.399 137.354 206.289 136.708C206.22 136.306 205.772 135.002 205.292 133.811C203.815 130.145 202.826 128.079 197.079 116.65C194.18 110.886 193.75 109.955 193.592 109.093C193.532 108.766 193.312 108.272 193.102 107.995C192.892 107.718 192.721 107.206 192.721 106.857C192.721 106.507 192.424 104.385 192.06 102.141C190.854 94.6918 190.426 89.3654 191.063 89.717C191.194 89.7893 191.812 90.1731 192.437 90.5703ZM141.024 92.3294C141.059 92.4525 141.368 93.6771 141.712 95.0515C143.346 101.596 143.687 102.774 144.873 105.94C145.57 107.805 146.356 110.255 146.619 111.384C147.027 113.135 147.348 113.915 148.797 116.69C150.258 119.485 151.203 121.793 151.777 123.969C152.18 125.493 152.614 125.843 154.104 125.843C155.391 125.843 156.178 125.355 156.985 124.059C157.341 123.487 158.028 122.561 158.511 122.001C159.449 120.917 159.676 119.759 158.976 119.635C158.577 119.563 156.443 121.643 155.538 122.983C154.23 124.92 153.92 124.802 152.906 121.983C152.132 119.833 151.003 117.656 149.289 115.01C148.475 113.755 148.275 113.252 147.87 111.44C147.61 110.28 146.822 107.805 146.118 105.94C144.893 102.693 144.493 101.433 142.978 96.0333C142.232 93.3772 141.67 92.1063 141.241 92.1063C141.086 92.1063 140.989 92.2071 141.024 92.3294ZM193.476 93.1835C193.211 93.6494 193.288 94.3902 194.161 99.7818C195.392 107.391 195.643 108.176 196.524 107.175C196.748 106.921 194.989 95.1666 194.455 93.3575C194.287 92.7846 193.756 92.6899 193.476 93.1835ZM197.182 95.4763C197.059 95.8414 197.211 97.5675 197.946 104.155C198.872 112.458 199.052 113.526 199.527 113.526C200.008 113.526 200.156 112.943 200.039 111.517C199.758 108.114 198.355 95.9119 198.202 95.5424C197.999 95.0533 197.339 95.0104 197.182 95.4763ZM189.688 108.706C189.989 108.858 190.941 110.801 190.786 110.946C190.756 110.974 190.391 111.25 189.974 111.56C187.62 113.312 183.985 116.966 184.041 117.523C184.159 118.654 184.674 118.373 188.093 115.319C191.405 112.362 191.48 112.305 191.638 112.678C191.691 112.802 191.908 113.316 192.123 113.821L192.512 114.741L191.18 115.674C187.87 117.991 186.227 119.952 187.594 119.952C187.941 119.952 188.308 119.69 191.271 117.319C193.153 115.814 193.107 115.826 193.488 116.696L193.781 117.364L192.467 118.614C190.207 120.764 189.44 122.094 190.462 122.094C190.87 122.094 191.018 121.968 193.14 119.819L194.413 118.531L194.798 119.354C195.289 120.399 195.299 120.349 194.549 120.729C193.558 121.232 191.131 123.617 191.268 123.953C191.524 124.583 192.298 124.253 193.953 122.808C195.88 121.127 195.749 121.161 196.227 122.223C196.436 122.685 196.635 123.127 196.67 123.204C196.704 123.28 196.615 123.344 196.471 123.344C196.132 123.344 194.048 125.09 194.048 125.372C194.048 125.632 195.872 127.329 196.452 127.607C197.068 127.904 197.602 127.85 198.027 127.449C198.236 127.253 198.471 127.095 198.549 127.099C198.667 127.104 201.716 133.092 202.118 134.108C202.188 134.285 200.976 133.558 199.426 132.491C189.138 125.414 182.418 121.278 177.879 119.228L176.016 118.387L178.333 116.804C183.862 113.026 186.65 110.993 187.889 109.834C189.466 108.359 189.257 108.489 189.688 108.706ZM171.813 111.146C171.524 111.418 171.712 112.105 172.148 112.375C173.028 112.918 173.836 112.006 173.095 111.308C172.793 111.023 172.044 110.929 171.813 111.146ZM166.825 113.265C166.621 113.768 167.886 114.588 168.879 114.596C169.241 114.599 169.593 114.022 169.417 113.711C169.054 113.073 167.045 112.727 166.825 113.265ZM163.24 115.562C161.344 116.646 161.155 116.841 161.336 117.52C161.66 118.732 163.462 118.785 163.424 117.582C163.403 116.914 163.564 116.806 165.86 115.951C166.621 115.667 166.751 115.328 166.273 114.878C165.754 114.388 164.992 114.561 163.24 115.562ZM197.455 124.765C198.261 126.254 197.383 127.065 196.022 126.086L195.367 125.617L196.176 124.845C196.621 124.42 197.005 124.069 197.029 124.065C197.052 124.061 197.245 124.375 197.455 124.765ZM268.048 140.947C266.114 141.042 261.319 141.542 260.657 141.717C260.344 141.799 259.577 141.966 258.952 142.086C257.722 142.323 252.357 143.919 251.277 144.369C250.131 144.848 250.123 144.866 250.562 145.981C251.122 147.408 251.227 147.484 252.087 147.085C252.943 146.689 258.746 144.893 260.089 144.609C267.583 143.026 278.492 143.246 282.923 145.071C284.923 145.894 287.269 147.041 287.847 147.478C288.209 147.753 288.614 147.977 288.747 147.977C288.879 147.977 288.987 148.04 288.987 148.117C288.987 148.194 289.238 148.396 289.543 148.566C291.809 149.827 297.264 156.148 299.124 159.669C299.331 160.061 299.563 160.426 299.64 160.48C300.144 160.831 299.855 161.413 299.064 161.637C297.413 162.106 293.48 164.063 291.356 165.474C289.277 166.856 288.545 167.361 288.066 167.746C287.791 167.966 287.503 168.147 287.424 168.147C287.036 168.147 287.368 168.983 288.069 169.766C289.052 170.863 288.984 170.868 290.796 169.549C294.464 166.881 300.585 163.777 301.093 164.326C302.076 165.393 302.359 173.678 301.536 177.34C301.112 179.228 300.192 182.254 299.958 182.532C299.868 182.639 299.671 183.052 299.523 183.451C295.89 193.15 286.191 196.47 281.3 189.69C281.046 189.338 280.839 188.966 280.839 188.863C280.839 188.76 280.766 188.675 280.677 188.675C280.588 188.675 280.325 188.072 280.093 187.336C279.843 186.543 279.569 185.997 279.42 185.997C279.102 185.997 276.67 187.019 276.67 187.153C276.67 187.484 277.325 189.389 277.438 189.389C277.514 189.389 277.635 189.609 277.706 189.878C277.778 190.146 277.894 190.408 277.964 190.458C278.034 190.508 278.262 190.865 278.47 191.251C281.285 196.466 290.106 197.847 295.559 193.925C297.497 192.532 300.926 188.636 300.926 187.829C300.926 187.705 301.005 187.604 301.1 187.604C301.196 187.604 301.331 187.363 301.4 187.068C301.468 186.774 301.603 186.533 301.699 186.533C301.795 186.533 301.874 186.433 301.874 186.31C301.875 186.187 301.994 185.873 302.138 185.613C302.283 185.352 302.506 184.83 302.635 184.452C302.765 184.075 302.936 183.686 303.015 183.588C303.223 183.33 304.131 180.576 304.457 179.214C305.554 174.633 305.573 167.404 304.498 164.022C304.21 163.118 304.154 163.149 306.75 162.768C310.564 162.208 316.324 162.336 319.307 163.048C319.881 163.185 320.813 163.396 321.38 163.515C321.946 163.636 322.866 163.932 323.424 164.172C324.681 164.714 324.749 164.689 325.749 163.308L326.562 162.185L326.121 161.909C325.606 161.587 322.108 160.532 320.729 160.284C317.534 159.71 316.123 159.586 312.809 159.583C309.207 159.579 306.564 159.769 304.36 160.19C303.227 160.406 303.144 160.399 303.058 160.089C303.008 159.907 302.9 159.758 302.819 159.758C302.738 159.758 302.613 159.537 302.542 159.269C302.47 159 302.355 158.739 302.285 158.689C302.214 158.639 301.998 158.316 301.801 157.973C300.847 156.298 300.439 155.665 299.728 154.76C299.305 154.22 298.612 153.336 298.189 152.796C296.077 150.1 290.489 145.121 289.576 145.121C289.489 145.121 289.206 144.965 288.949 144.773C288.477 144.424 286.598 143.504 285.008 142.843C283.367 142.161 281.469 141.68 278.47 141.184C277.291 140.989 270.374 140.831 268.048 140.947ZM210.568 143.392C210.033 143.927 210.05 144.505 210.628 145.389C210.885 145.781 211.22 146.352 211.374 146.657C212.223 148.34 215.882 152.618 216.474 152.618C216.519 152.618 217.055 152.928 217.666 153.309C221.251 155.536 227.959 156.163 232.753 154.718C234.19 154.285 234.141 154.371 233.727 153.002C233.309 151.618 233.317 151.621 231.539 152.197C226.687 153.765 219.631 152.326 216.537 149.137C216.346 148.941 215.916 148.499 215.581 148.155C215.246 147.812 214.353 146.707 213.597 145.699C212.84 144.692 212.094 143.769 211.94 143.646C211.785 143.525 211.54 143.325 211.394 143.202C211.049 142.91 211.048 142.911 210.568 143.392ZM248.055 145.658C247.534 145.949 244.803 147.084 244.623 147.084C244.261 147.084 244.117 147.912 244.311 148.877C244.574 150.188 244.63 150.217 245.854 149.688C247.696 148.889 248.896 148.39 249.263 148.268C249.681 148.128 249.607 147.526 249.015 146.265C248.632 145.451 248.536 145.389 248.055 145.658ZM241.175 148.627C241.051 148.743 239.435 149.403 238.201 149.841C237.837 149.971 237.069 150.276 236.496 150.518C235.923 150.76 235.294 151.012 235.097 151.077C234.685 151.215 234.737 151.905 235.246 153.052C235.599 153.845 235.986 153.849 237.712 153.076C238.844 152.569 240.873 151.78 241.773 151.497C242.51 151.266 242.515 150.544 241.793 149.21C241.394 148.471 241.366 148.446 241.175 148.627ZM327.361 163.288C325.814 165.27 325.715 164.997 328.42 166.248C330.964 167.424 330.785 167.441 331.901 165.916C332.757 164.745 332.851 164.878 330.263 163.604C328.36 162.666 327.888 162.615 327.361 163.288ZM332.887 166.898C331.85 168.155 331.849 168.161 332.525 168.546C333.442 169.07 335.876 171.194 336.903 172.367C337.549 173.104 337.351 173.154 339.063 171.824C340.115 171.007 340.099 171.065 339.477 170.379C337.64 168.351 334.569 165.827 333.94 165.827C333.847 165.827 333.373 166.309 332.887 166.898ZM283.821 171.324C281.46 173.534 281.476 173.496 282.781 173.997C284.765 174.757 284.662 174.78 286.343 173.191C287.172 172.407 287.85 171.709 287.85 171.641C287.85 171.51 286.985 170.377 286.571 169.964C286.441 169.834 286.334 169.654 286.334 169.563C286.334 169.121 285.691 169.572 283.821 171.324ZM339.751 173.113C338.408 174.12 338.331 174.302 338.907 175.122C339.176 175.503 339.394 175.858 339.394 175.912C339.394 175.966 339.648 176.509 339.958 177.12C343.615 184.335 343.358 197.574 339.452 203.13C339.212 203.472 339.015 203.82 339.015 203.902C339.015 203.985 338.418 204.878 337.689 205.888C336.095 208.093 336.111 207.902 337.452 208.717C338.833 209.557 338.809 209.559 339.81 208.444C342.676 205.253 344.996 200.306 345.665 195.967C346.47 190.736 345.322 179.424 343.774 177.34C343.701 177.242 343.438 176.68 343.19 176.091C342.943 175.501 342.691 174.979 342.63 174.93C342.57 174.881 342.354 174.52 342.15 174.127C341.17 172.24 341.005 172.171 339.751 173.113ZM279.676 175.697C277.214 178.803 276.48 180.647 276.48 183.729C276.48 185.742 276.627 185.983 277.458 185.334C277.598 185.223 277.949 185.078 278.236 185.01C278.523 184.942 278.806 184.814 278.864 184.725C278.922 184.636 279.047 184.609 279.141 184.663C279.33 184.773 279.387 184.56 279.693 182.629C279.808 181.906 280.07 180.966 280.276 180.541C280.482 180.117 280.649 179.692 280.649 179.596C280.649 179.501 280.714 179.395 280.792 179.363C280.87 179.33 281.225 178.902 281.58 178.411C281.935 177.92 282.565 177.095 282.98 176.577C283.395 176.059 283.701 175.612 283.661 175.584C283.387 175.398 281.069 174.574 280.839 174.581C280.683 174.586 280.16 175.088 279.676 175.697ZM134.45 198.414C123.326 198.735 113.885 199.272 111.426 199.725C110.853 199.83 109.19 200.083 107.731 200.286C106.271 200.49 104.523 200.805 103.846 200.987C103.168 201.168 102.06 201.455 101.382 201.625C97.9259 202.49 96.6297 202.946 93.2339 204.493C91.2015 205.419 89.2828 206.307 88.9702 206.467C88.6575 206.627 88.1733 206.868 87.8938 207.005C86.8771 207.501 83.3941 208.269 81.3248 208.453L79.9329 208.578L79.6515 209.292C79.497 209.684 79.3038 210.305 79.2223 210.67C78.8812 212.201 79.3426 212.103 72.0942 212.185C65.3234 212.262 64.6961 212.334 64.5019 213.062C64.4394 213.295 64.3219 213.486 64.2404 213.486C63.7477 213.486 63.9021 215.134 64.5161 216.432C65.8246 219.196 68.5705 231.799 68.5989 235.174C68.6055 235.959 68.687 237.164 68.7789 237.852C68.8718 238.539 69.0006 240.226 69.0641 241.6C69.1276 242.974 69.2186 244.46 69.2669 244.902C69.3152 245.344 69.3995 246.268 69.4545 246.955C69.5777 248.488 69.8818 250.656 70.0988 251.542C70.1879 251.906 70.2229 252.238 70.1784 252.28C70.1329 252.323 70.2258 252.882 70.383 253.524C70.5413 254.166 70.7175 255.149 70.7753 255.71C70.8331 256.271 70.9184 256.787 70.9639 256.856C71.0093 256.925 71.0937 257.417 71.1515 257.948C71.2093 258.48 71.3021 259.276 71.3571 259.718C71.574 261.464 71.6337 261.987 71.7276 262.931C71.7806 263.471 71.8649 264.234 71.9133 264.627C71.9625 265.019 72.0497 265.769 72.1075 266.292C72.1653 266.816 72.333 267.74 72.4799 268.345C72.6277 268.951 72.7963 269.848 72.8551 270.339C72.9129 270.829 73.0844 271.874 73.2341 272.659C73.4823 273.959 74.1361 278.036 74.3796 279.799C74.5018 280.69 74.6184 281.781 74.7501 283.28C74.8069 283.918 74.8922 284.627 74.9396 284.858C75.3148 286.657 75.4579 290.188 75.5194 299.158C75.5592 304.808 75.6312 309.751 75.6796 310.144C75.7288 310.537 75.8226 311.541 75.8899 312.375C76.0216 314.027 76.0775 314.59 76.2689 316.213C76.628 319.241 76.6906 320.309 76.8478 326.061C76.9142 328.498 76.9919 330.979 77.0203 331.571C77.1103 333.48 77.5964 333.918 80.1148 334.359C81.1286 334.537 82.3424 334.765 82.8114 334.867C83.2804 334.97 85.9239 335.096 88.6859 335.147C93.4916 335.238 94.4401 335.188 97.5924 334.679C98.1656 334.587 99.061 334.469 99.5822 334.417C100.103 334.366 100.707 334.287 100.924 334.242C101.141 334.198 101.908 334.117 102.629 334.065C103.35 334.012 104.196 333.933 104.509 333.888C104.822 333.843 106.357 333.719 107.92 333.614C109.484 333.508 111.146 333.388 111.615 333.349C112.084 333.31 113.022 333.232 113.7 333.177C114.377 333.122 116.936 332.88 119.385 332.638C121.834 332.396 124.904 332.109 126.207 332.002C127.51 331.894 128.789 331.782 129.049 331.752C129.31 331.723 130.248 331.646 131.134 331.581C132.603 331.475 133.645 331.385 135.492 331.205C136.185 331.138 138.559 330.862 140.988 330.566C141.77 330.471 142.75 330.359 143.167 330.318C143.584 330.277 144.309 330.204 144.778 330.156C146.333 329.994 147.704 329.857 148.663 329.765C149.184 329.715 149.738 329.64 149.894 329.597C150.233 329.505 154.029 328.977 155.097 328.874C155.508 328.834 156.532 328.683 157.371 328.539C161.136 327.892 162.628 327.671 164.486 327.482C167.538 327.172 178.984 327.3 180.499 327.66C181.309 327.853 183.012 328.541 184.07 329.102C185.318 329.764 186.023 329.828 187.358 329.401C187.992 329.198 188.629 329.14 189.496 329.206C190.858 329.31 193.909 329.134 197.838 328.723C203.652 328.115 204.772 328.04 209.303 327.957C213.997 327.873 226.044 328.272 228.821 328.605C229.551 328.693 231.256 328.86 232.611 328.977C233.966 329.094 237.164 329.429 239.717 329.722C242.271 330.015 245.341 330.323 246.539 330.406C252.65 330.832 262.765 331.676 263.464 331.818C264.166 331.961 266.64 332.228 277.712 333.356C282.207 333.814 283.903 333.962 290.977 334.509C295.884 334.889 296.946 335.017 296.946 335.227C296.946 335.301 297.255 335.417 297.633 335.483C298.01 335.55 298.459 335.673 298.628 335.758C301.62 337.241 302.847 336.106 302.388 332.278C302.317 331.689 302.207 330.765 302.143 330.225C301.802 327.345 302.023 319.573 302.505 317.5C302.647 316.89 302.794 316.11 302.833 315.767C302.903 315.142 302.901 306.683 302.819 267.84C302.795 256.451 302.828 246.009 302.892 244.635C303.075 240.71 303.274 237.59 303.491 235.263C303.541 234.723 303.622 233.599 303.674 232.764C303.813 230.453 304.058 227.764 304.25 226.428C304.292 226.133 304.379 225.41 304.442 224.821C304.505 224.232 304.725 222.585 304.931 221.162C305.138 219.738 305.35 218.132 305.404 217.592C305.458 217.052 305.589 216.292 305.695 215.904C305.862 215.294 305.999 214.455 306.087 213.486C306.239 211.836 304.831 211.392 301.839 212.147C299.883 212.641 297.881 212.721 295.809 212.389C295.132 212.281 294.066 212.181 293.441 212.168L292.304 212.144L291.676 211.028C291.332 210.414 291.031 209.692 291.009 209.424C290.971 208.94 290.946 208.932 288.876 208.667C287.588 208.503 286.582 208.275 286.265 208.078C284.153 206.76 283.473 206.519 280.879 206.173C280.169 206.079 278.57 205.73 277.325 205.398C276.079 205.067 274.206 204.614 273.164 204.391C272.122 204.168 270.334 203.703 269.19 203.359C264.205 201.858 259.251 200.857 254.366 200.363C253.173 200.242 247.186 200.126 241.328 200.111C237.378 200.101 229.928 200.395 227.874 200.643C225.286 200.956 225.085 200.973 223.041 201.087C221.947 201.147 220.924 201.238 220.767 201.288C220.303 201.437 217.005 201.848 215.272 201.973C214.386 202.037 212.723 202.2 211.577 202.334C210.43 202.469 208.98 202.625 208.355 202.681C206.615 202.836 205.82 202.961 204.376 203.307C203.646 203.482 202.026 203.842 200.775 204.105C199.524 204.369 198.075 204.74 197.554 204.929C196.482 205.317 195.499 205.581 192.248 206.353C190.997 206.649 189.843 206.959 189.682 207.043C189.522 207.126 189.01 207.254 188.545 207.327C188.081 207.4 187.469 207.571 187.188 207.706C186.545 208.016 186.468 208.014 186.468 207.689C186.468 207.36 185.609 206.812 185.279 206.931C185.145 206.979 184.795 206.747 184.5 206.415C184.205 206.083 183.866 205.811 183.745 205.811C183.624 205.811 183.219 205.616 182.848 205.378C179.876 203.476 176.362 202.142 171.782 201.178C170.323 200.871 168.631 200.497 168.023 200.346C167.415 200.195 166.519 200.04 166.033 200.001C165.013 199.921 164.542 199.86 161.829 199.464C160.737 199.304 158.905 199.139 157.759 199.096C156.612 199.055 154.736 198.906 153.59 198.768C152.443 198.63 150.269 198.468 148.757 198.41C147.246 198.352 145.327 198.274 144.494 198.236C143.66 198.199 139.14 198.278 134.45 198.414ZM151.505 201.263C153.069 201.402 155.371 201.602 156.622 201.706C166.953 202.569 175.157 204.443 179.551 206.943C182.658 208.711 183.318 208.929 184.206 208.482C184.565 208.301 184.573 208.419 184.573 214.122C184.573 225.375 185.168 248.011 185.606 253.381C186.124 259.748 186.259 262.245 187.034 279.71C187.14 282.115 187.353 285.449 187.506 287.119C188.496 297.908 188.514 315.134 187.534 315.267C187.318 315.296 187.04 315.511 186.917 315.744C186.733 316.093 186.532 316.174 185.775 316.204C176.399 316.585 178.157 316.695 167.328 315.052C160.808 314.062 157.016 313.655 148.284 313.004C144.948 312.756 141.196 312.419 139.946 312.255C133.892 311.46 120.157 312.13 113.503 313.544C112.333 313.793 109.916 314.154 108.131 314.344C103.537 314.836 103.421 314.854 100.995 315.414C98.4897 315.994 97.0315 316.49 94.7499 317.537L93.1392 318.276L93.0975 316.174C92.8388 303.005 92.4806 295.007 92.0088 291.848C91.1996 286.438 90.2749 277.771 90.1034 273.998C89.7907 267.092 89.4411 263.5 88.6935 259.519C87.9241 255.419 87.6636 253.62 87.4532 250.971C87.1074 246.611 86.5171 241.645 85.851 237.495C85.4426 234.942 85.0115 231.769 84.8931 230.444C84.4799 225.797 82.5812 214.451 81.7729 211.797C81.4451 210.723 81.1315 210.921 84.0413 210.366C87.5195 209.703 88.8024 209.254 93.5181 207.053C98.4082 204.77 102.014 203.688 108.015 202.7C117.175 201.192 141.616 200.384 151.505 201.263ZM254.972 203.146C257.434 203.354 261.609 204.236 266.342 205.546C271.526 206.98 278.038 208.597 280.365 209.027C281.761 209.285 282.795 209.593 283.492 209.959C285.771 211.154 286.235 211.344 286.888 211.345C288.435 211.348 289.028 211.652 288.909 212.383C288.569 214.455 288.005 220.36 287.656 225.509C286.666 240.13 286.677 239.742 286.901 250.257C287.017 255.706 287.236 262.172 287.39 264.627C287.783 270.942 287.921 284.171 287.624 287.02C287.457 288.62 287.404 292.917 287.439 302.063C287.476 311.446 287.431 314.97 287.271 315.25C287.151 315.462 287.007 316.262 286.951 317.031L286.85 318.427L286.278 318.15C285.917 317.973 285.466 317.908 285.049 317.972C284.633 318.036 284.18 317.97 283.82 317.795C283.484 317.631 283.029 317.559 282.712 317.619C282.218 317.712 279.461 317.512 274.396 317.014C272.39 316.818 271.695 316.73 268.237 316.237C265.646 315.868 262.045 315.74 252.698 315.686C248.321 315.66 242.863 315.551 240.57 315.443C219.353 314.444 199.894 315.375 192.598 317.739C190.585 318.392 190.458 318.048 190.748 312.747C191.054 307.133 190.749 294.598 190.136 287.653C189.98 285.886 189.777 282.673 189.684 280.513C189.086 266.581 188.826 261.548 188.457 256.773C187.786 248.072 187.73 246.825 187.228 229.194C187.006 221.428 186.72 213.784 186.546 210.956L186.428 209.051L187.217 209.418C188.191 209.872 189.689 209.651 194.427 208.355C202.649 206.107 206.151 205.414 211.766 204.928C214.059 204.729 217.726 204.365 219.915 204.118C223.41 203.722 230.418 203.101 233.748 202.89C235.799 202.759 252.838 202.965 254.972 203.146ZM335.225 208.979C335.225 209.053 334.501 209.857 333.615 210.768C330.305 214.165 332.903 214.402 337.164 211.091C338.071 210.387 338.078 210.414 336.752 209.566C335.661 208.868 335.225 208.701 335.225 208.979ZM80.3479 213.642C80.3479 213.949 81.3172 220.22 81.6763 222.233C82.0515 224.342 82.2249 225.86 82.7271 231.426C82.8863 233.193 83.1809 235.607 83.3818 236.789C83.9475 240.113 84.4638 244.385 84.8931 249.276C85.3535 254.525 85.5184 255.81 86.1305 258.915C87.0117 263.382 87.2665 266.006 87.6474 274.533C87.7848 277.605 88.4746 284.378 89.2563 290.331C89.9489 295.606 90.1204 298.563 90.4075 310.144L90.633 319.248L90.1915 320.229C89.9489 320.769 89.3823 321.732 88.9332 322.37L88.1174 323.528L88.1165 321.834C88.1155 319.323 87.7744 316.28 87.2533 314.128C86.9434 312.854 86.79 311.672 86.7871 310.558C86.7852 309.643 86.6582 308.06 86.5038 307.039C86.1419 304.64 85.5213 299.323 85.3763 297.381C85.2285 295.397 84.9509 292.808 84.6022 290.152C84.046 285.909 83.9342 284.943 83.757 282.834C83.6575 281.655 83.4955 279.969 83.3951 279.085C83.2956 278.201 83.1591 275.792 83.0919 273.73C83.0246 271.668 82.8474 268.536 82.6986 266.769C82.5508 265.001 82.3452 261.748 82.2429 259.539C81.9842 253.961 81.429 249.456 80.7241 247.223C80.4796 246.445 79.3038 240.23 78.8281 237.198C78.6329 235.955 78.2198 233.706 77.909 232.2C77.3813 229.637 76.8384 225.896 76.3589 221.519C76.2462 220.488 76.0709 219.288 75.9686 218.853C75.8065 218.165 75.8274 218.04 76.123 217.894C76.7067 217.608 78.7059 215.535 79.4004 214.496C80.0191 213.57 80.3479 213.274 80.3479 213.642ZM291.094 214.602C291.319 215.02 291.93 215.991 292.453 216.76L293.405 218.159L293.67 227.559C293.816 232.729 293.886 237.682 293.824 238.566C293.763 239.449 293.588 245.032 293.436 250.971C293.283 256.911 293.064 263.698 292.946 266.055C292.829 268.411 292.715 276.564 292.695 284.172C292.642 303.625 292.171 317.793 291.51 319.783C291.444 319.979 291.341 320.823 291.278 321.657L291.167 323.175L290.558 321.568L289.949 319.962L289.761 305.86C289.624 295.637 289.63 291.071 289.783 289.26C290.096 285.556 290.014 269.963 289.655 265.341C289.104 258.21 288.817 239.562 289.175 234.107C289.278 232.534 289.493 229.038 289.653 226.338C289.812 223.638 290.022 220.506 290.121 219.377C290.218 218.248 290.355 216.541 290.423 215.584C290.567 213.581 290.555 213.601 291.094 214.602ZM328.289 215.209C326.958 216.519 326.959 216.509 327.827 217.586L328.183 218.026L329.193 217.152C330.497 216.025 330.906 215.347 330.708 214.644C330.425 213.642 329.71 213.809 328.289 215.209ZM75.6834 215.767C75.2541 216.133 74.5501 216.697 74.12 217.021C73.2549 217.673 73.1592 218.045 73.6917 218.683C73.8869 218.917 74.1029 219.551 74.173 220.091C74.2422 220.631 74.3805 221.595 74.48 222.233C74.5786 222.871 74.7956 224.598 74.9604 226.071C75.1253 227.543 75.6284 230.676 76.0775 233.032C76.5276 235.388 76.9464 237.758 77.0099 238.298C77.0733 238.838 77.2619 240.002 77.4287 240.886C78.2947 245.473 78.6813 247.363 78.8509 247.848C78.9551 248.142 79.1171 248.905 79.2118 249.543C79.3066 250.181 79.5132 251.363 79.6704 252.169C79.8429 253.046 80.0002 255.267 80.0618 257.703C80.1196 259.94 80.2484 262.534 80.3489 263.466C80.6672 266.423 80.7667 267.784 80.8179 269.892C80.9515 275.409 81.1504 279.25 81.3864 280.87C81.5294 281.852 81.6943 283.539 81.753 284.619C81.8108 285.698 81.9909 287.385 82.1519 288.367C82.4883 290.413 82.8692 293.981 83.2861 298.988C83.4453 300.902 83.6158 302.589 83.6632 302.736C83.8603 303.34 84.5179 309.439 84.5235 310.723C84.5273 311.485 84.6581 312.75 84.8154 313.536C85.6643 317.785 85.9476 321.089 86.0301 327.682C86.032 327.805 86.2612 327.905 86.5408 327.905C86.8193 327.905 87.33 328 87.674 328.118C88.4651 328.388 89.4136 328.173 92.5612 327.01C94.9631 326.124 99.0525 324.829 100.814 324.397C106.089 323.105 107.301 322.971 115.974 322.727C119.361 322.632 123.582 322.477 125.354 322.382C127.126 322.287 132.584 322.126 137.482 322.023C142.381 321.921 147.156 321.791 148.094 321.735C156.438 321.236 167.161 321.365 171.308 322.013C175.839 322.721 176.971 322.816 180.972 322.817C185.042 322.818 185.048 322.817 185.947 322.339L186.848 321.861L186.728 322.339C186.663 322.602 186.361 323.39 186.058 324.088L185.505 325.36L184.042 324.764C181.404 323.69 180.662 323.607 172.791 323.497C165.109 323.39 165.359 323.374 158.517 324.421C152.03 325.415 148.351 325.903 143.736 326.382C141.338 326.632 138.358 326.959 137.112 327.109C135.867 327.259 133.394 327.499 131.616 327.642C126.574 328.046 122.551 328.403 119.764 328.693C117.066 328.974 112.048 329.418 109.341 329.617C106.446 329.828 102.398 330.19 100.53 330.405C99.8001 330.489 98.0519 330.73 96.6449 330.941C92.0069 331.639 82.0411 331.344 81.1267 330.483C81.0652 330.425 81.0007 329.319 80.9818 328.025C80.923 323.828 80.7307 319.289 80.5346 317.463C80.4284 316.481 80.2058 314.392 80.0381 312.822C79.8182 310.757 79.6922 306.8 79.5833 298.542C79.4999 292.258 79.3445 286.636 79.2365 286.047C79.1294 285.457 78.9087 283.771 78.7447 282.298C78.3619 278.85 77.4836 273.432 76.3703 267.661C76.2566 267.072 76.1258 266.386 76.0794 266.135C76.0339 265.885 75.78 263.957 75.5156 261.851C75.2513 259.745 74.8259 256.817 74.5701 255.345C73.6017 249.759 73.0427 245.54 72.8674 242.493C72.7158 239.846 72.604 238.298 72.4808 237.138C72.4287 236.647 72.3434 235.643 72.2923 234.906C72.0715 231.776 71.3448 227.909 70.2125 223.839C70.0618 223.299 69.6866 221.934 69.3787 220.805C69.0708 219.676 68.5951 218.039 68.3232 217.166C68.0512 216.294 67.8551 215.555 67.8883 215.524C67.9366 215.479 71.6878 215.292 75.8947 215.124L76.4631 215.102L75.6834 215.767ZM227.4 215.529C222.992 216.466 219.441 217.663 219.441 218.211C219.441 218.677 219.894 218.705 221.073 218.311C221.686 218.106 222.871 217.776 223.705 217.576C224.538 217.377 225.885 217.017 226.698 216.778C228.743 216.175 230.828 216.055 233.274 216.397C234.369 216.55 235.818 216.727 236.496 216.789C237.173 216.853 238.239 217.018 238.865 217.156C240.173 217.446 241.917 217.493 242.081 217.243C242.393 216.767 240.108 216.154 236.74 215.809C235.677 215.701 234.313 215.535 233.708 215.443C232.208 215.211 228.669 215.26 227.4 215.529ZM298.652 215.718C300.059 215.718 301.475 215.653 301.8 215.575L302.391 215.432L302.226 216.289C302.08 217.049 301.175 223.033 300.734 226.16C300.643 226.798 300.438 228.726 300.278 230.444C300.118 232.162 299.859 234.935 299.703 236.606C298.968 244.451 298.883 248.849 298.988 273.552C299.166 315.89 299.172 315.509 298.403 318.266C298.25 318.81 298.178 321.063 298.178 325.248V331.426L297.041 331.385C295.311 331.322 292.143 331.122 290.03 330.942C288.987 330.853 286.941 330.689 285.482 330.576C284.022 330.464 281.464 330.224 279.797 330.043C278.129 329.863 275.997 329.664 275.059 329.602C273.257 329.483 266.689 328.809 263.026 328.367C261.827 328.223 259.61 328.017 258.099 327.91C251.337 327.432 245.699 326.954 241.139 326.474C223.862 324.656 209.149 324.192 200.775 325.201C199.108 325.402 196.397 325.732 194.751 325.932C190.869 326.407 189.211 326.423 189.416 325.986C189.848 325.06 190.438 323.297 190.443 322.918L190.447 322.483L190.969 322.953C192.751 324.561 199.305 324.495 206.744 322.796C208.256 322.451 210.046 322.047 210.724 321.899C212.373 321.539 219.583 321.297 222.947 321.488C224.406 321.571 229.693 321.683 234.696 321.738C253.511 321.943 259.679 322.242 264.068 323.159C265.215 323.399 267.517 323.882 269.185 324.234C270.852 324.585 272.899 324.951 273.733 325.045C275.597 325.259 277.114 325.53 278.849 325.961C282.291 326.815 287.574 327.13 288.534 326.537C288.981 326.261 289.082 326.261 290.013 326.537C292.597 327.305 293.483 326.691 293.647 324.017C293.7 323.161 293.865 321.577 294.013 320.497C294.874 314.24 295.114 306.505 295.14 284.172C295.149 275.68 295.257 266.403 295.378 263.556C295.501 260.708 295.658 254.564 295.728 249.9C295.798 245.237 295.898 241.354 295.95 241.271C296.036 241.132 296.011 232.098 295.916 229.373C295.895 228.735 295.755 228.032 295.608 227.811C295.383 227.475 295.38 227.348 295.591 227.031C295.79 226.73 295.816 225.787 295.717 222.434C295.577 217.744 295.522 217.411 294.691 216.251L294.109 215.438L295.101 215.577C295.647 215.655 297.245 215.718 298.652 215.718ZM250.993 216.479C249.722 216.559 249.382 216.681 249.382 217.054C249.382 217.563 249.856 217.718 251.673 217.804C253.202 217.877 253.394 217.933 254.806 218.713C257.327 220.104 257.412 220.12 262.715 220.184C267.416 220.24 267.427 220.241 267.926 220.678C269.231 221.82 272.006 222.768 274.042 222.768C275.077 222.768 275.541 222.855 276.027 223.137C276.751 223.559 277.762 223.545 278.052 223.108C278.733 222.085 276.807 220.983 274.335 220.983C272.47 220.983 270.631 220.367 269.498 219.362C268.313 218.31 268.219 218.296 263.253 218.418C258.256 218.541 258.522 218.582 255.162 217.183C253.673 216.563 252.585 216.379 250.993 216.479ZM120.311 217.303C119.513 217.571 118.778 218.034 117.206 219.258C115.197 220.823 114.289 220.945 112.865 219.846C110.63 218.122 108.708 217.942 106.419 219.243C105.014 220.043 104.605 220.095 101.572 219.872C100.677 219.806 100.495 220.6 101.292 221.092C102.695 221.958 105.506 221.597 107.052 220.354C108.638 219.08 109.967 219.152 112.04 220.626C114.446 222.337 115.476 222.21 118.19 219.861C120.552 217.818 121.461 217.639 124.042 218.708C127.155 219.997 130.54 220.404 131.78 219.638C132.581 219.145 132.359 219.02 130.685 219.02C128.813 219.02 126.18 218.443 124.26 217.612C122.84 216.997 121.522 216.895 120.311 217.303ZM324.217 218.362C322.435 219.624 319.956 221.167 318.313 222.038C317.092 222.685 317.026 222.876 317.658 223.927C318.218 224.859 318.483 224.879 319.809 224.095C321.142 223.306 322.878 222.225 323.279 221.931C325.065 220.629 326.817 219.286 326.917 219.142C327.066 218.929 326.71 218.127 326.467 218.127C326.373 218.127 326.333 218.067 326.379 217.993C326.423 217.92 326.314 217.719 326.136 217.546C325.827 217.248 325.732 217.288 324.217 218.362ZM134.924 218.1C134.924 218.724 136.648 219.395 138.695 219.565C140.792 219.739 142.251 220.168 143.792 221.064C145.061 221.803 145.771 221.86 147.383 221.357C149.338 220.747 150.1 220.744 151.297 221.346C152.529 221.966 154.177 222.065 155.348 221.59C157.375 220.769 157.675 220.837 158.447 222.291C159.536 224.341 161.212 224.797 160.816 222.935C160.267 220.344 157.817 219.143 155.2 220.18C153.84 220.72 153.14 220.738 151.695 220.269C150.429 219.859 148.929 219.817 147.428 220.15C146.03 220.459 145.366 220.362 144.136 219.664C142.553 218.766 140.202 218.233 138.49 218.383C137.431 218.476 136.936 218.44 136.398 218.227C135.629 217.923 134.924 217.862 134.924 218.1ZM210.629 219.039C210.004 219.235 208.725 219.547 207.787 219.734C206.287 220.031 206.024 220.142 205.607 220.651C204.162 222.418 202.96 222.904 201.901 222.149C201.192 221.645 200.515 221.976 200.805 222.685C201.403 224.158 204.548 223.661 205.907 221.879C206.616 220.951 206.727 220.899 208.417 220.718C208.972 220.659 209.867 220.443 210.406 220.239C211.078 219.985 211.985 219.839 213.282 219.778C215.247 219.686 215.84 219.534 215.84 219.123C215.84 218.541 212.395 218.484 210.629 219.039ZM94.6845 220.953C93.7029 221.975 95.3326 223.625 96.57 222.862C97.1963 222.476 97.1566 221.795 96.4696 221.148C95.8376 220.552 95.1422 220.476 94.6845 220.953ZM256.678 229.55C252.215 230.332 248.994 230.446 241.328 230.096C234.788 229.796 224.754 229.787 224.561 230.081C223.915 231.066 225.618 231.333 232.626 231.348C235.64 231.354 239.045 231.437 240.191 231.533C241.338 231.628 244.679 231.752 247.618 231.809L252.961 231.911L254.724 231.424C257.203 230.738 259.05 230.651 260.278 231.16C260.799 231.376 262.707 232.023 264.516 232.596C268.393 233.826 268.401 233.831 269.274 235.188C269.646 235.768 270.235 236.404 270.583 236.6C270.932 236.797 271.578 237.259 272.02 237.627C273.375 238.752 275.37 239.451 275.874 238.976C276.485 238.4 276.003 237.661 274.68 237.146C274.263 236.984 273.666 236.624 273.354 236.347C273.041 236.068 272.424 235.63 271.983 235.373C271.458 235.067 271.022 234.613 270.722 234.057C269.815 232.378 268.811 231.959 260.094 229.624C259.097 229.358 257.924 229.332 256.678 229.55ZM128.007 232.411C123.329 232.618 121.805 233.02 122.883 233.763C123.298 234.049 130.994 233.967 135.587 233.628C136.942 233.527 138.636 233.403 139.352 233.352C140.483 233.269 140.755 233.312 141.436 233.68C142.188 234.086 142.423 234.108 147.336 234.227C153.822 234.385 154.362 234.446 155.159 235.105C156.594 236.291 157.547 235.44 156.213 234.164C154.943 232.949 154.716 232.91 148.473 232.821C144.303 232.762 142.805 232.682 142.263 232.487C141.481 232.205 133.61 232.163 128.007 232.411ZM112.373 233.491C112.009 233.706 111.313 234.193 110.828 234.575C108.894 236.095 106.141 236.515 103.372 235.714C101.503 235.172 101.017 235.347 99.0989 237.256L97.4787 238.869L96.0859 238.808C94.3624 238.733 93.9066 239.088 94.7935 239.814C96.1456 240.922 98.2632 240.495 99.5215 238.86C101.315 236.532 101.916 236.283 103.855 237.069C106.414 238.106 109.562 237.287 111.069 235.193C112.119 233.732 112.376 233.618 113.662 234.033C114.845 234.415 117.49 234.685 117.49 234.423C117.49 233.468 113.614 232.762 112.373 233.491ZM208.829 233.867C208.464 233.966 207.587 234.421 206.878 234.878C204.839 236.195 204.491 236.333 203.215 236.334C201.047 236.334 200.065 236.799 200.789 237.482C201.77 238.406 205.491 237.743 207.215 236.336C208.763 235.075 208.95 235.025 212.619 234.898C216.382 234.768 218.551 234.237 217.246 233.765C216.753 233.587 209.545 233.675 208.829 233.867ZM162.8 235.245C162.134 235.872 162.671 236.636 164.078 237.064C164.458 237.18 165.143 237.478 165.598 237.727C166.388 238.158 166.497 238.17 167.959 238.008C169.655 237.818 169.754 237.858 170.399 238.984C171.188 240.359 172.608 239.269 171.861 237.861C171.051 236.333 170.445 236.074 168.334 236.35L166.954 236.532L165.667 235.811C164.002 234.879 163.329 234.747 162.8 235.245ZM237.917 245.365C235.186 245.704 234.497 245.847 234.549 246.063C234.657 246.508 249.9 246.425 252.603 245.963L254.025 245.721L252.982 245.468C251.427 245.091 240.716 245.017 237.917 245.365ZM256.299 245.348C256.194 245.382 255.768 245.466 255.351 245.536L254.593 245.664L255.162 245.817C255.851 246.002 260.195 246.564 264.068 246.969C265.632 247.133 267.422 247.416 268.048 247.599C268.673 247.782 269.545 247.933 269.985 247.934C270.823 247.937 270.904 247.995 272.462 249.712C273.154 250.474 274.764 250.665 276.474 250.187C277.037 250.029 277.511 249.9 277.529 249.9C277.546 249.9 277.834 250.147 278.168 250.446C279.68 251.808 280.787 250.305 279.344 248.85C278.701 248.203 277.894 248.123 276.369 248.56C274.509 249.091 273.925 248.966 272.705 247.773C271.853 246.939 271.467 246.693 270.878 246.606C270.468 246.546 269.578 246.339 268.9 246.146C266.423 245.442 257.727 244.892 256.299 245.348ZM130.092 246.103C128.696 246.426 129.359 247.225 131.02 247.222C131.343 247.221 132.34 247.352 133.235 247.514C135.912 247.997 137.723 247.495 135.849 246.789C134.053 246.112 131.412 245.797 130.092 246.103ZM215.461 246.713C212.628 246.894 208.656 247.894 205.859 249.129C205.044 249.489 204.128 249.832 203.825 249.89C203.129 250.025 202.735 250.549 203.144 250.795C203.679 251.116 204.52 250.971 206.321 250.247C210.961 248.379 214.574 247.726 219.428 247.88C224.816 248.049 230.432 247.416 230.432 246.639C230.432 246.517 229.503 246.496 227.637 246.577C220.716 246.874 219.652 246.893 218.493 246.75C217.816 246.666 216.452 246.649 215.461 246.713ZM143.641 247.061C140.925 247.245 140.609 247.317 140.609 247.749C140.609 248.24 140.736 248.252 146.539 248.279L151.806 248.304L153.066 248.935L154.325 249.564L158.316 249.52C162.961 249.469 164.1 249.726 166 251.253C167.4 252.381 168.423 252.477 168.748 251.514C168.87 251.151 168.57 250.436 168.295 250.436C168.209 250.436 167.561 250.034 166.855 249.543C164.611 247.983 163.27 247.696 158.877 247.835C155.307 247.947 155.235 247.942 153.76 247.476C152.061 246.94 147.926 246.77 143.641 247.061ZM116.775 247.427C116.121 247.516 114.533 247.903 113.246 248.288C110.911 248.986 109.687 249.242 105.93 249.815C104.002 250.109 101.373 250.88 100.533 251.399C98.7247 252.515 96.6515 251.864 96.192 250.034C95.9731 249.16 95.1289 249.624 95.1289 250.621C95.1289 252.77 98.3334 254.063 100.627 252.838C102.534 251.82 104.018 251.275 106.196 250.793C107.457 250.513 109.64 250.03 111.047 249.719C112.454 249.408 114.446 248.839 115.473 248.455L117.34 247.758L120.684 247.756C124.026 247.754 124.88 247.677 124.88 247.381C124.88 247.178 118.341 247.216 116.775 247.427ZM266.058 255.025C265.797 255.068 264.999 255.354 264.282 255.661L262.979 256.221L261.061 255.891C259.138 255.56 253.848 255.235 249.761 255.196L247.582 255.176L245.852 255.93C243.714 256.861 242.76 256.9 239.337 256.199C235.931 255.501 225.885 255.433 225.173 256.103C224.939 256.324 224.529 256.505 224.262 256.505C223.991 256.505 223.828 256.582 223.893 256.681C223.967 256.795 225.747 256.819 228.878 256.748C234.149 256.63 236.72 256.788 239.738 257.415C242.419 257.973 244.137 257.846 246.079 256.947C247.897 256.106 250.085 255.9 251.905 256.399C252.638 256.599 253.731 256.683 255.6 256.683C257.173 256.683 258.861 256.792 259.74 256.951C262.387 257.429 263.373 257.292 264.902 256.235C265.851 255.579 266.855 255.636 268.458 256.439C269.342 256.88 270.265 257.168 271.364 257.346C273.246 257.648 274.16 257.997 275.367 258.869C276.983 260.037 277.807 260.089 277.807 259.023C277.807 257.742 274.869 256.179 272.036 255.955C270.836 255.859 269.641 255.638 268.806 255.354C267.518 254.919 267.046 254.863 266.058 255.025ZM209.572 259.816C206.497 260.341 204.281 261.198 204.281 261.863C204.281 262.506 204.942 262.633 206.234 262.236C206.879 262.036 208.389 261.644 209.588 261.362C214.248 260.268 214.235 259.021 209.572 259.816ZM131.039 262.067C126.864 263.198 126.586 263.308 126.586 263.838C126.586 264.725 127.681 264.614 132.935 263.199C136.315 262.29 137.018 262.248 138.725 262.857C140.273 263.408 141.175 263.436 151.979 263.261L155.864 263.199L156.919 262.624C159.053 261.462 160.393 261.578 162.495 263.108C164.517 264.58 165.358 264.797 168.541 264.663C170.849 264.567 171.018 264.535 171.478 264.101C172.461 263.175 171.989 263.011 168.539 263.08L165.528 263.14L164.391 262.573C163.766 262.261 162.913 261.833 162.496 261.622C161.222 260.98 157.861 260.965 156.029 261.595C154.683 262.057 154.571 262.067 153.068 261.867C151.98 261.721 150.757 261.706 149.042 261.817C145.328 262.057 140.793 261.84 139.384 261.355C137.36 260.66 135.719 260.8 131.039 262.067ZM243.602 281.703C242.734 281.802 239.576 281.83 236.212 281.771C229.898 281.659 228.286 281.75 223.326 282.501C219.328 283.105 218.325 283.506 219.525 284.022C219.889 284.178 220.678 284.119 223.173 283.749C230.971 282.593 249.245 282.052 254.314 282.825C255.301 282.976 256.772 283.1 257.583 283.1C259.463 283.101 260.144 283.374 261.626 284.713C262.494 285.499 262.943 285.779 263.337 285.779C264.073 285.779 261.492 283.296 260.089 282.653C258.165 281.774 248.096 281.193 243.602 281.703ZM212.49 284.361C211.847 284.44 210.354 284.761 209.174 285.075C207.959 285.399 206.371 285.684 205.513 285.734C203.899 285.828 203.523 285.976 203.523 286.519C203.523 287.3 205.603 287.355 208.45 286.647C210.798 286.063 215.272 284.676 215.272 284.531C215.272 284.395 214.269 284.153 213.874 284.195C213.757 284.207 213.134 284.282 212.49 284.361ZM266.247 286.026C266.247 286.281 268.059 287.207 268.558 287.207C269.272 287.207 269.253 286.76 268.524 286.405C267.919 286.11 266.247 285.831 266.247 286.026ZM242.201 292.191C239.662 292.281 239.257 292.336 239.074 292.617C238.532 293.452 240.768 293.798 244.644 293.479C249.321 293.096 250.737 293.174 252.099 293.889C253.54 294.646 254.972 294.974 258.354 295.323C261.4 295.638 262.097 295.885 263.684 297.205C264.969 298.275 265.732 298.629 266.763 298.635C268.144 298.643 268.923 298.932 269.834 299.778C270.788 300.663 271.241 300.787 271.547 300.249C272.203 299.093 269.716 297.214 267.517 297.206C266.216 297.202 265.539 296.912 264.299 295.828C262.797 294.515 261.905 294.238 257.838 293.821C254.604 293.49 254.105 293.393 252.627 292.799C250.793 292.063 248.892 291.952 242.201 292.191ZM225.515 294.299C223.766 294.359 223.231 294.517 223.231 294.972C223.231 295.734 227.041 295.789 229.256 295.059C231.448 294.336 230.418 294.127 225.515 294.299ZM210.819 296.861C206.672 298.19 206.365 298.321 206.365 298.766C206.365 299.581 216.364 296.712 216.479 295.864C216.558 295.291 214.693 295.619 210.819 296.861ZM275.465 302.86C274.467 303.147 274.488 303.292 275.571 303.618C275.957 303.734 276.323 303.978 276.384 304.159C276.674 305.018 277.807 304.67 277.807 303.722C277.807 302.648 277.102 302.389 275.465 302.86ZM139.661 314.787C140.964 314.931 144.205 315.215 146.862 315.417C156.857 316.176 159.535 316.472 167.023 317.636C177.544 319.273 178.031 319.307 184.238 318.868L185.704 318.765L185.499 319.32C185.037 320.567 184.747 320.635 180.404 320.535C178.267 320.485 176.008 320.36 175.382 320.256C169.136 319.226 163.436 318.907 155.769 319.157C153.007 319.247 145.844 319.441 139.851 319.588C133.858 319.735 127.377 319.939 125.449 320.043C123.521 320.146 119.129 320.313 115.69 320.415C105.146 320.725 100.785 321.531 92.4532 324.707C90.9296 325.288 89.623 325.763 89.55 325.763C89.3946 325.763 90.3355 324.179 91.2527 322.895C91.6004 322.409 91.9879 321.739 92.1159 321.408C92.3186 320.88 92.4484 320.792 93.1657 320.7C93.6167 320.642 94.5623 320.322 95.2672 319.991C98.8602 318.301 102.822 317.304 107.446 316.925C109.509 316.756 112.336 316.35 114.241 315.951C120.893 314.556 132.711 314.014 139.661 314.787ZM234.222 317.73C237.505 317.823 242.11 317.994 244.455 318.109C246.8 318.225 251.618 318.302 255.162 318.281C262.116 318.239 266.092 318.434 269.374 318.98C270.521 319.17 272.397 319.411 273.543 319.515C274.69 319.62 275.883 319.743 276.196 319.788C276.509 319.835 277.823 319.953 279.115 320.053C280.409 320.153 282.029 320.362 282.716 320.518C283.404 320.675 284.895 320.854 286.032 320.917L288.099 321.033L288.534 322.104C289.066 323.416 289.081 323.621 288.646 323.621C288.459 323.621 288.204 323.716 288.08 323.833C287.904 323.998 287.637 323.994 286.896 323.815C285.707 323.528 284.694 323.68 284.529 324.17C284.454 324.396 284.293 324.497 284.093 324.445C283.918 324.398 283.307 324.308 282.734 324.244C282.161 324.18 280.413 323.859 278.849 323.532C277.286 323.207 275.452 322.884 274.775 322.818C273.234 322.666 268.265 321.759 266.949 321.389C262.567 320.159 256.153 319.775 234.317 319.437C231.086 319.387 225.244 319.293 221.336 319.227C213.374 319.094 212.342 319.166 208.253 320.142C202.746 321.455 200.328 321.808 196.511 321.855C192.67 321.903 192.568 321.881 191.599 320.842C190.861 320.05 190.775 320.123 192.721 319.874C193.607 319.761 195.611 319.439 197.175 319.159C204.552 317.84 218.747 317.292 234.222 317.73Z" fill="#324368"/>
<path fill-rule="evenodd" clip-rule="evenodd" d="M116.921 46.2596C116.921 46.3087 117.271 47.1057 117.699 48.0312C120.491 54.0699 128.711 74.4117 134.86 90.4999C137.95 98.5824 139.092 101.62 143.987 114.776C146.571 121.725 149.956 130.523 150.543 131.823C150.81 132.412 151.082 133.191 151.147 133.555L151.266 134.215L152.803 133.114C155.131 131.444 156.445 130.341 161.477 125.827C169.256 118.851 171.531 117.07 179.93 111.382C182.536 109.617 185.2 107.783 185.851 107.306L187.033 106.438L182.061 102.071C179.326 99.6695 175.508 96.2646 173.577 94.5037C170.261 91.4799 163.896 85.8527 154.916 78.0032C148.818 72.6723 147.149 71.2505 142.03 67.0201C132.287 58.9679 121.315 49.8698 119.574 48.398C117.026 46.2435 116.921 46.1597 116.921 46.2596ZM128.386 47.8929C131.829 49.7154 133.447 50.6195 143.451 56.3217C161.577 66.6514 168.834 71.0684 182.333 79.9863C194.616 88.1009 197.913 90.076 206.744 94.6117C211.892 97.2553 211.79 97.1928 212.435 98.0326L212.953 98.7074L213.183 98.1835C214.413 95.3864 219.387 92.9481 232.681 88.623C236.368 87.4235 239.31 86.3998 239.219 86.3489C239.128 86.2972 238.4 86.0839 237.601 85.8732C231.939 84.3854 213.545 78.2236 198.501 72.7758C186.993 68.6078 187.077 68.6408 168.371 61.0921C151.939 54.4617 148.548 53.1774 142.314 51.2246C137.289 49.6502 126.623 46.5889 126.165 46.5889C126.032 46.5898 127.031 47.1762 128.386 47.8929ZM124.714 49.0451C124.801 49.27 135.896 58.228 135.984 58.145C136.017 58.1129 135.878 57.581 135.674 56.9634C135.47 56.3449 135.303 55.6576 135.303 55.4363C135.303 55.215 135.154 54.9142 134.971 54.7687C134.567 54.4456 126.469 49.8064 124.808 48.946C124.716 48.8987 124.674 48.9434 124.714 49.0451ZM136.627 56.1833C137.618 59.2026 137.979 59.8934 139.022 60.7592C139.593 61.234 140.091 61.5937 140.126 61.558C140.201 61.4812 139.369 57.3132 139.261 57.2374C138.978 57.0357 136.622 55.6924 136.553 55.6924C136.505 55.6924 136.538 55.9138 136.627 56.1833ZM140.883 58.486C140.96 58.6671 141.147 59.6998 141.3 60.7797L141.575 62.7432L142.639 63.6803C143.961 64.845 143.932 64.8977 143.25 62.5549C142.939 61.4803 142.643 60.2799 142.595 59.8872C142.507 59.1661 142.29 58.9224 141.292 58.428C140.775 58.1709 140.751 58.1745 140.883 58.486ZM144.133 60.8225C144.289 61.2893 144.441 61.873 144.471 62.1184C144.5 62.3639 144.715 63.3331 144.95 64.2729L145.378 65.9812L147.652 67.8429C151.362 70.8801 152.052 71.4004 152.366 71.4004C152.531 71.4004 153.086 71.7557 153.602 72.1903C154.944 73.3247 154.984 73.1007 154.092 69.4476C153.66 67.6769 153.305 66.0678 153.305 65.8723C153.305 65.4385 150.779 63.7562 150.693 64.1328C150.664 64.2613 150.9 65.3671 151.217 66.5899C152.109 70.0197 152.181 71.2933 151.437 70.449C150.856 69.7895 149.327 64.9004 149.325 63.6928C149.323 63.1921 149.199 63.0252 148.519 62.6147C147.488 61.9908 147.467 62.0899 148.082 64.6737C148.641 67.0192 148.675 67.4734 148.294 67.4734C147.874 67.4734 147.455 66.7943 147.03 65.4207C146.817 64.7335 146.548 63.9382 146.433 63.6535C146.318 63.3688 146.245 62.7539 146.272 62.2871C146.322 61.4027 145.953 61.0153 144.265 60.179L143.847 59.972L144.133 60.8225ZM154.632 66.4239C154.632 66.5265 154.8 67.2334 155.007 67.9938C155.53 69.9234 155.94 71.8074 156.158 73.2747C156.331 74.4296 156.405 74.5742 157.146 75.1882C158.234 76.0896 158.251 75.8585 157.364 72.1216C156.635 69.0433 156.622 68.5444 157.272 68.5444C157.908 68.5444 158.585 70.6516 159.564 75.6844L159.998 77.9157L161.283 79.1607C162.891 80.719 162.858 80.7895 162.116 77.3784C161.271 73.4942 161.131 71.9832 161.543 71.2318C161.718 70.914 161.833 70.632 161.8 70.6052C161.128 70.0813 154.632 66.2918 154.632 66.4239ZM162.463 71.3281C162.521 71.5156 162.626 72.1501 162.696 72.7392C162.832 73.8789 163.611 77.6069 164.35 80.6566C164.78 82.4317 166.251 84.53 166.524 83.758C166.63 83.4599 165.661 78.1058 165.143 76.1307C164.488 73.629 164.643 72.5286 165.53 73.3845C165.912 73.7522 167.236 79.0849 167.818 82.5951L168.327 85.6679L171.949 88.8738C173.942 90.6374 176.252 92.7285 177.083 93.5211C178.563 94.9321 179.048 95.2552 178.809 94.6706C178.579 94.1039 178.137 91.0801 177.758 87.4654C177.358 83.6411 177.021 80.9689 176.881 80.4888C176.808 80.2415 174.383 78.5404 174.104 78.5404C174.046 78.5404 174.164 79.2437 174.364 80.1023C175.796 86.1999 176.613 91.4647 176.154 91.6307C175.52 91.8592 175.264 91.13 174.428 86.7184C174.052 84.7281 173.532 82.1372 173.272 80.96C173.013 79.7828 172.826 78.5619 172.854 78.2459C172.918 77.5507 173.184 77.7559 167.897 74.4117C162.454 70.9685 162.329 70.8971 162.463 71.3281ZM169.682 77.4409C169.917 78.1781 171.679 86.0446 171.792 86.8621C171.935 87.8921 171.637 88.3089 171.18 87.7207C170.639 87.0245 168.655 79.2607 168.655 77.8425C168.655 76.9509 169.429 76.6483 169.682 77.4409ZM178.388 81.9766C178.489 82.496 179.667 91.7227 179.96 94.2895C180.038 94.9669 180.002 95.398 179.853 95.5667C179.216 96.2905 190.25 105.178 190.971 104.522C191 104.497 190.812 103.239 190.555 101.728C190.298 100.216 189.98 98.0969 189.849 97.0188C189.612 95.066 189.608 95.0562 188.85 94.3957C188.039 93.6906 188.028 93.2872 188.834 93.7843C189.494 94.1913 189.521 94.0771 189.458 91.1211L189.405 88.6346L187.534 87.4181C186.504 86.7488 185.639 86.2249 185.61 86.2534C185.537 86.3257 186.308 91.9431 187.057 96.8019C187.685 100.876 187.686 101.333 187.068 101.528C186.734 101.632 186.357 100.624 186.013 98.7109C185.452 95.5836 184.383 87.6118 184.383 86.5515C184.383 85.7688 184.294 85.418 184.034 85.1726C183.677 84.837 182.011 83.7169 181.868 83.7169C181.825 83.7169 181.9 84.2596 182.033 84.9218C182.168 85.5841 182.454 87.4922 182.67 89.1612C182.886 90.8302 183.189 93.0391 183.345 94.0699C183.744 96.7153 183.73 96.9259 183.156 96.9259C182.205 96.9259 181.954 95.9031 181.36 89.6074C181.151 87.3985 180.851 84.962 180.692 84.1918C180.534 83.4224 180.404 82.7664 180.404 82.7343C180.404 82.6361 178.562 81.3964 178.415 81.3964C178.339 81.3964 178.327 81.6579 178.388 81.9766ZM229.825 84.4666C231.06 85.6296 227.665 88.0009 224.765 88.0009C222.89 88.0009 221.776 88.3205 220.214 89.3076C215.006 92.5973 212.297 93.7977 211.673 93.0909C211.295 92.6616 211.55 92.3885 213.123 91.5335C215.323 90.3366 218.831 88.3151 219.937 87.6065C221.126 86.8451 222.936 86.3944 224.807 86.3944C225.979 86.3944 226.301 86.3275 226.748 85.9928C228.566 84.63 229.504 84.1641 229.825 84.4666ZM190.826 91.5165C190.826 93.7602 191.14 96.4601 192.06 102.141C192.424 104.385 192.721 106.507 192.721 106.857C192.721 107.207 192.892 107.718 193.102 107.995C193.312 108.272 193.531 108.766 193.592 109.093C193.75 109.956 194.179 110.886 197.079 116.65C202.826 128.08 203.815 130.145 205.292 133.811C205.772 135.003 206.22 136.307 206.289 136.708C206.398 137.354 206.818 137.976 207.014 137.784C207.125 137.674 208.002 129.18 208.735 121.113C209.515 112.526 209.847 109.408 210.372 105.762C211.148 100.367 211.117 100.785 210.774 100.541C210.602 100.418 210.401 100.317 210.327 100.317C210.252 100.317 210.162 101.797 210.126 103.605C210.066 106.605 209.97 107.341 209.67 107.06C209.612 107.006 209.475 105.365 209.365 103.416C209.147 99.557 209.207 99.7257 207.805 98.968L206.875 98.4664L206.995 101.043C207.273 107.039 207.557 117.775 207.445 118.049C207.286 118.441 206.631 118.43 206.465 118.034C206.28 117.59 205.996 111.272 205.838 104.071L205.702 97.9175L204.091 97.0687C203.205 96.6011 202.393 96.2173 202.286 96.2155C202.158 96.2128 202.201 97.3088 202.411 99.4294C202.588 101.198 202.827 104.271 202.944 106.257C203.29 112.118 203.518 114.763 203.83 116.528C204.151 118.351 204.104 118.703 203.533 118.703C202.388 118.703 202.098 116.806 201.425 104.958C201.311 102.946 201.075 99.9453 200.902 98.2897L200.586 95.2811L197.08 93.2872C195.152 92.1903 193.062 90.9676 192.437 90.5704C191.812 90.1733 191.194 89.7895 191.063 89.7172C190.879 89.6155 190.826 90.0216 190.826 91.5165ZM141.912 92.8651C142.126 93.2819 142.606 94.7081 142.978 96.0334C144.493 101.433 144.892 102.693 146.118 105.94C146.822 107.806 147.61 110.28 147.869 111.441C148.275 113.252 148.475 113.755 149.289 115.011C151.003 117.656 152.132 119.833 152.905 121.983C153.92 124.802 154.23 124.92 155.538 122.983C156.442 121.643 158.577 119.563 158.976 119.635C159.676 119.76 159.449 120.917 158.511 122.002C158.028 122.561 157.341 123.487 156.984 124.059C156.178 125.355 155.391 125.843 154.104 125.843C152.614 125.843 152.18 125.493 151.777 123.969C151.203 121.793 150.258 119.485 148.797 116.69C147.347 113.916 147.027 113.136 146.619 111.384C146.356 110.255 145.57 107.806 144.873 105.94C143.687 102.774 143.346 101.596 141.712 95.0517C141.368 93.6772 141.059 92.4527 141.024 92.3296C140.863 91.7655 141.565 92.1886 141.912 92.8651ZM194.455 93.3577C194.989 95.1668 196.748 106.921 196.524 107.175C195.642 108.176 195.392 107.391 194.161 99.7819C193.288 94.3904 193.211 93.6496 193.475 93.1837C193.756 92.6901 194.287 92.7847 194.455 93.3577ZM198.202 95.5426C198.355 95.9121 199.758 108.114 200.039 111.517C200.156 112.943 200.008 113.526 199.527 113.526C199.052 113.526 198.872 112.458 197.946 104.155C197.211 97.5676 197.059 95.8416 197.182 95.4765C197.338 95.0106 197.999 95.0535 198.202 95.5426ZM187.889 109.834C186.65 110.994 183.862 113.027 178.333 116.805L176.016 118.387L177.879 119.228C182.418 121.278 189.138 125.415 199.426 132.491C200.976 133.558 202.188 134.285 202.118 134.108C201.716 133.092 198.667 127.104 198.548 127.099C198.471 127.095 198.236 127.253 198.027 127.449C197.602 127.85 197.067 127.904 196.452 127.607C195.872 127.329 194.048 125.632 194.048 125.373C194.048 125.09 196.132 123.344 196.471 123.344C196.615 123.344 196.704 123.281 196.67 123.204C196.634 123.127 196.435 122.685 196.227 122.223C195.749 121.161 195.88 121.127 193.953 122.808C192.298 124.253 191.524 124.583 191.268 123.954C191.13 123.617 193.558 121.232 194.549 120.729C195.298 120.349 195.289 120.4 194.798 119.354L194.413 118.532L193.14 119.819C191.018 121.969 190.87 122.094 190.461 122.094C189.44 122.094 190.207 120.764 192.467 118.614L193.781 117.364L193.488 116.696C193.107 115.826 193.152 115.814 191.271 117.32C188.308 119.69 187.941 119.952 187.593 119.952C186.227 119.952 187.87 117.992 191.18 115.674L192.512 114.741L192.122 113.821C191.908 113.316 191.691 112.802 191.638 112.679C191.48 112.306 191.405 112.362 188.093 115.319C184.674 118.373 184.159 118.654 184.041 117.523C183.984 116.966 187.62 113.312 189.974 111.56C190.39 111.251 190.756 110.974 190.786 110.946C190.941 110.802 189.989 108.858 189.687 108.706C189.257 108.489 189.466 108.359 187.889 109.834ZM173.095 111.308C173.836 112.007 173.027 112.918 172.148 112.375C171.711 112.106 171.524 111.418 171.813 111.146C172.044 110.929 172.793 111.023 173.095 111.308ZM168.63 113.188C169.574 113.498 169.768 114.604 168.878 114.597C168.396 114.593 167.329 114.18 167.05 113.889C166.331 113.14 167.247 112.734 168.63 113.188ZM166.273 114.878C166.751 115.328 166.621 115.668 165.86 115.951C163.564 116.806 163.403 116.914 163.424 117.582C163.462 118.785 161.659 118.732 161.336 117.52C161.012 116.307 165.334 113.993 166.273 114.878ZM196.176 124.845L195.367 125.617L196.021 126.087C196.909 126.725 197.838 126.521 197.838 125.688C197.838 125.484 197.122 124.049 197.029 124.065C197.005 124.07 196.621 124.42 196.176 124.845ZM133.124 200.99C110.984 201.539 102.57 202.827 93.518 207.053C88.8023 209.254 87.5194 209.703 84.0412 210.366C81.1314 210.921 81.445 210.723 81.7728 211.797C82.5811 214.451 84.4798 225.797 84.893 230.444C85.0114 231.769 85.4425 234.942 85.8509 237.495C86.517 241.645 87.1073 246.612 87.4531 250.971C87.6635 253.62 87.924 255.419 88.6934 259.519C89.441 263.5 89.7906 267.093 90.1033 273.998C90.2748 277.771 91.1995 286.438 92.0087 291.848C92.4805 295.007 92.8387 303.005 93.0974 316.174L93.1391 318.276L94.7498 317.537C97.0314 316.49 98.4896 315.995 100.995 315.414C103.421 314.854 103.537 314.836 108.131 314.344C109.915 314.154 112.333 313.794 113.503 313.545C120.157 312.13 133.892 311.46 139.946 312.255C141.196 312.419 144.948 312.757 148.284 313.005C157.016 313.655 160.808 314.062 167.328 315.052C178.157 316.695 176.399 316.585 185.775 316.204C186.532 316.174 186.733 316.093 186.917 315.744C187.04 315.511 187.318 315.297 187.534 315.267C188.513 315.134 188.496 297.908 187.506 287.119C187.353 285.45 187.14 282.115 187.033 279.71C186.259 262.245 186.124 259.748 185.606 253.381C185.168 248.011 184.573 225.375 184.573 214.122C184.573 208.419 184.565 208.301 184.206 208.482C183.318 208.929 182.658 208.712 179.551 206.944C175.157 204.443 166.953 202.569 156.622 201.706C155.371 201.602 153.068 201.402 151.505 201.264C147.675 200.924 140.255 200.813 133.124 200.99ZM233.748 202.89C230.418 203.101 223.41 203.722 219.915 204.118C217.726 204.365 214.059 204.729 211.766 204.928C206.151 205.415 202.649 206.107 194.427 208.355C189.689 209.651 188.191 209.872 187.217 209.418L186.428 209.051L186.545 210.956C186.72 213.785 187.006 221.428 187.228 229.194C187.73 246.825 187.786 248.072 188.457 256.773C188.826 261.548 189.086 266.581 189.684 280.513C189.776 282.673 189.98 285.886 190.136 287.653C190.749 294.598 191.054 307.133 190.748 312.747C190.458 318.048 190.585 318.392 192.598 317.739C199.894 315.375 219.353 314.444 240.57 315.443C242.863 315.551 248.321 315.66 252.698 315.686C262.045 315.74 265.646 315.868 268.237 316.237C271.694 316.73 272.39 316.818 274.396 317.015C279.461 317.512 282.217 317.712 282.712 317.619C283.028 317.559 283.484 317.631 283.82 317.795C284.18 317.971 284.633 318.036 285.048 317.972C285.465 317.908 285.917 317.973 286.278 318.15L286.85 318.427L286.951 317.031C287.007 316.262 287.151 315.462 287.271 315.25C287.431 314.97 287.476 311.446 287.439 302.064C287.404 292.917 287.457 288.62 287.624 287.02C287.921 284.172 287.783 270.942 287.39 264.627C287.236 262.172 287.016 255.706 286.901 250.257C286.677 239.742 286.666 240.13 287.656 225.509C288.005 220.36 288.568 214.455 288.909 212.383C289.028 211.652 288.435 211.348 286.888 211.345C286.235 211.344 285.771 211.154 283.492 209.959C282.794 209.593 281.761 209.285 280.365 209.027C278.038 208.597 271.526 206.98 266.342 205.546C261.609 204.236 257.434 203.354 254.972 203.146C252.838 202.966 235.798 202.759 233.748 202.89ZM79.4003 214.496C78.7058 215.535 76.7066 217.608 76.1229 217.895C75.8273 218.04 75.8064 218.165 75.9685 218.853C76.0708 219.289 76.2461 220.488 76.3588 221.519C76.8383 225.896 77.3812 229.637 77.9089 232.2C78.2197 233.706 78.6328 235.955 78.828 237.198C79.3037 240.23 80.4795 246.446 80.724 247.223C81.4289 249.456 81.9841 253.961 82.2428 259.539C82.3451 261.748 82.5507 265.002 82.6985 266.769C82.8473 268.536 83.0245 271.669 83.0918 273.73C83.159 275.792 83.2955 278.202 83.395 279.085C83.4954 279.969 83.6574 281.656 83.7569 282.834C83.9341 284.943 84.0459 285.909 84.6021 290.152C84.9508 292.808 85.2284 295.397 85.3762 297.381C85.5212 299.324 86.1418 304.64 86.5037 307.039C86.6581 308.06 86.7851 309.643 86.787 310.558C86.7899 311.672 86.9433 312.854 87.2532 314.128C87.7743 316.28 88.1154 319.323 88.1164 321.834L88.1173 323.528L88.9331 322.37C89.3822 321.732 89.9488 320.769 90.1914 320.229L90.6329 319.248L90.4074 310.144C90.1203 298.563 89.9488 295.606 89.2562 290.331C88.4745 284.379 87.7847 277.605 87.6473 274.533C87.2664 266.007 87.0116 263.382 86.1304 258.915C85.5183 255.811 85.3534 254.525 84.893 249.276C84.4637 244.385 83.9474 240.113 83.3817 236.79C83.1808 235.607 82.8862 233.193 82.727 231.426C82.2248 225.86 82.0514 224.342 81.6762 222.233C81.3171 220.22 80.3478 213.949 80.3478 213.642C80.3478 213.274 80.019 213.57 79.4003 214.496ZM290.423 215.584C290.355 216.541 290.218 218.248 290.12 219.377C290.022 220.506 289.812 223.639 289.652 226.338C289.493 229.038 289.278 232.534 289.175 234.108C288.817 239.562 289.104 258.21 289.655 265.341C290.013 269.963 290.096 285.556 289.783 289.26C289.63 291.071 289.624 295.637 289.76 305.86L289.949 319.962L290.558 321.568L291.167 323.175L291.278 321.657C291.341 320.823 291.444 319.98 291.509 319.783C292.171 317.793 292.642 303.625 292.695 284.172C292.715 276.564 292.828 268.411 292.946 266.055C293.063 263.698 293.283 256.911 293.436 250.971C293.588 245.032 293.763 239.449 293.824 238.566C293.886 237.682 293.816 232.73 293.67 227.559L293.404 218.16L292.453 216.76C291.93 215.991 291.319 215.02 291.094 214.602C290.554 213.601 290.567 213.581 290.423 215.584ZM71.6374 215.307C69.6079 215.395 67.9213 215.493 67.8882 215.524C67.855 215.555 68.0511 216.294 68.3231 217.166C68.595 218.039 69.0707 219.676 69.3786 220.805C69.6865 221.934 70.0617 223.299 70.2124 223.839C71.3447 227.909 72.0714 231.776 72.2922 234.906C72.3433 235.643 72.4286 236.647 72.4807 237.138C72.6039 238.298 72.7157 239.846 72.8673 242.493C73.0426 245.54 73.6016 249.759 74.5699 255.345C74.8258 256.817 75.2512 259.746 75.5155 261.851C75.7799 263.957 76.0338 265.885 76.0793 266.135C76.1257 266.386 76.2565 267.072 76.3702 267.661C77.4835 273.432 78.3618 278.85 78.7446 282.298C78.9086 283.771 79.1293 285.458 79.2364 286.047C79.3444 286.636 79.4998 292.258 79.5832 298.542C79.6921 306.8 79.8181 310.757 80.038 312.822C80.2057 314.392 80.4283 316.481 80.5345 317.463C80.7306 319.289 80.9229 323.828 80.9817 328.025C81.0006 329.32 81.0651 330.425 81.1266 330.483C82.041 331.345 92.0068 331.639 96.6448 330.941C98.0518 330.73 99.8 330.489 100.53 330.405C102.398 330.191 106.446 329.828 109.341 329.617C112.048 329.419 117.066 328.974 119.764 328.693C122.55 328.403 126.573 328.046 131.616 327.642C133.394 327.499 135.867 327.26 137.112 327.109C138.358 326.959 141.338 326.632 143.736 326.382C148.351 325.903 152.03 325.415 158.517 324.422C165.358 323.374 165.109 323.39 172.791 323.497C180.662 323.607 181.404 323.691 184.042 324.764L185.505 325.36L186.058 324.089C186.361 323.39 186.663 322.603 186.728 322.339L186.848 321.861L185.947 322.339C185.047 322.817 185.042 322.818 180.972 322.817C176.971 322.816 175.839 322.721 171.308 322.013C167.161 321.365 156.438 321.236 148.094 321.735C147.156 321.791 142.381 321.921 137.482 322.023C132.583 322.126 127.126 322.288 125.354 322.382C123.582 322.477 119.361 322.632 115.974 322.728C107.301 322.971 106.089 323.105 100.814 324.397C99.0524 324.829 94.963 326.124 92.5611 327.011C89.4135 328.173 88.465 328.388 87.6739 328.118C87.3299 328 86.8192 327.905 86.5407 327.905C86.2611 327.905 86.0319 327.805 86.03 327.682C85.9475 321.089 85.6642 317.785 84.8153 313.536C84.658 312.75 84.5272 311.485 84.5234 310.723C84.5177 309.439 83.8602 303.34 83.6631 302.736C83.6157 302.589 83.4452 300.902 83.286 298.988C82.8691 293.981 82.4882 290.413 82.1518 288.367C81.9908 287.385 81.8107 285.699 81.7529 284.619C81.6942 283.539 81.5293 281.852 81.3863 280.87C81.1503 279.25 80.9514 275.409 80.8178 269.892C80.7666 267.784 80.6671 266.423 80.3488 263.466C80.2483 262.534 80.1195 259.94 80.0617 257.703C80.0001 255.267 79.8428 253.046 79.6703 252.169C79.5131 251.363 79.3065 250.182 79.2117 249.543C79.117 248.905 78.955 248.142 78.8508 247.848C78.6812 247.363 78.2946 245.473 77.4286 240.886C77.2618 240.003 77.0732 238.838 77.0098 238.298C76.9463 237.758 76.5275 235.388 76.0774 233.032C75.6283 230.676 75.1252 227.543 74.9603 226.071C74.7954 224.598 74.5785 222.871 74.4799 222.233C74.3804 221.595 74.2421 220.631 74.1729 220.091C74.1028 219.551 73.8868 218.917 73.6916 218.683C73.1591 218.045 73.2548 217.673 74.1199 217.022C74.55 216.698 75.254 216.133 75.6833 215.767L76.463 215.102L75.8946 215.124C75.5819 215.137 73.666 215.219 71.6374 215.307ZM233.708 215.443C234.313 215.536 235.677 215.701 236.74 215.81C240.108 216.154 242.393 216.767 242.081 217.243C241.916 217.493 240.173 217.446 238.865 217.156C238.239 217.018 237.173 216.853 236.496 216.79C235.818 216.727 234.369 216.55 233.274 216.397C230.828 216.055 228.742 216.176 226.698 216.778C225.885 217.017 224.538 217.377 223.705 217.576C222.871 217.776 221.686 218.106 221.073 218.311C219.894 218.705 219.441 218.677 219.441 218.211C219.441 217.663 222.992 216.466 227.4 215.529C228.668 215.26 232.207 215.212 233.708 215.443ZM294.691 216.251C295.522 217.412 295.577 217.745 295.716 222.435C295.816 225.787 295.789 226.73 295.59 227.031C295.38 227.348 295.383 227.475 295.607 227.811C295.755 228.032 295.895 228.735 295.916 229.373C296.011 232.099 296.036 241.133 295.949 241.271C295.897 241.354 295.798 245.237 295.728 249.9C295.658 254.564 295.5 260.709 295.378 263.556C295.257 266.403 295.149 275.68 295.139 284.172C295.114 306.505 294.874 314.24 294.013 320.497C293.865 321.577 293.7 323.161 293.647 324.017C293.483 326.691 292.597 327.305 290.012 326.538C289.082 326.261 288.981 326.261 288.533 326.538C287.574 327.13 282.291 326.815 278.849 325.961C277.114 325.53 275.597 325.259 273.733 325.045C272.899 324.951 270.852 324.585 269.185 324.234C267.517 323.882 265.215 323.4 264.068 323.16C259.679 322.242 253.511 321.943 234.696 321.738C229.693 321.683 224.406 321.571 222.947 321.488C219.583 321.297 212.372 321.54 210.724 321.899C210.046 322.047 208.256 322.451 206.744 322.796C199.305 324.496 192.751 324.561 190.968 322.953L190.447 322.483L190.443 322.919C190.438 323.297 189.848 325.061 189.415 325.986C189.211 326.423 190.869 326.407 194.751 325.933C196.397 325.732 199.107 325.402 200.775 325.202C209.149 324.192 223.862 324.656 241.139 326.474C245.699 326.954 251.336 327.432 258.099 327.91C259.61 328.017 261.827 328.223 263.026 328.367C266.689 328.809 273.257 329.483 275.059 329.602C275.997 329.664 278.129 329.863 279.797 330.043C281.464 330.225 284.022 330.464 285.482 330.576C286.941 330.689 288.987 330.853 290.03 330.942C292.142 331.122 295.311 331.322 297.041 331.385L298.178 331.426V325.248C298.178 321.063 298.25 318.81 298.403 318.266C299.172 315.509 299.166 315.89 298.988 273.552C298.883 248.849 298.968 244.451 299.703 236.606C299.859 234.935 300.118 232.162 300.278 230.444C300.438 228.726 300.642 226.798 300.733 226.16C301.175 223.034 302.08 217.049 302.226 216.289L302.391 215.432L301.8 215.575C301.042 215.758 296.397 215.761 295.101 215.578L294.109 215.438L294.691 216.251ZM255.162 217.183C258.522 218.583 258.256 218.542 263.253 218.418C268.219 218.296 268.313 218.31 269.498 219.362C270.63 220.367 272.47 220.983 274.335 220.983C276.807 220.983 278.732 222.085 278.052 223.108C277.762 223.545 276.751 223.559 276.026 223.137C275.541 222.855 275.077 222.768 274.041 222.768C272.006 222.768 269.231 221.82 267.926 220.678C267.427 220.241 267.416 220.24 262.715 220.184C257.412 220.12 257.327 220.104 254.806 218.713C253.393 217.933 253.202 217.878 251.673 217.804C249.856 217.718 249.382 217.563 249.382 217.054C249.382 216.156 252.885 216.234 255.162 217.183ZM124.26 217.612C126.18 218.443 128.812 219.02 130.685 219.02C132.359 219.02 132.581 219.145 131.78 219.638C130.54 220.404 127.155 219.997 124.042 218.708C121.461 217.639 120.552 217.819 118.19 219.862C115.476 222.21 114.445 222.337 112.04 220.626C109.967 219.152 108.638 219.08 107.052 220.354C105.506 221.597 102.695 221.958 101.292 221.092C100.494 220.6 100.676 219.806 101.572 219.872C104.605 220.095 105.014 220.043 106.419 219.243C108.707 217.942 110.63 218.122 112.865 219.846C114.289 220.945 115.197 220.823 117.206 219.258C120.279 216.865 121.744 216.524 124.26 217.612ZM136.398 218.227C136.936 218.44 137.431 218.476 138.49 218.384C140.202 218.233 142.553 218.766 144.136 219.664C145.366 220.362 146.029 220.46 147.428 220.15C148.929 219.817 150.429 219.859 151.695 220.269C153.139 220.738 153.84 220.72 155.2 220.18C157.817 219.143 160.267 220.344 160.816 222.935C161.212 224.797 159.536 224.341 158.447 222.291C157.675 220.837 157.375 220.769 155.348 221.59C154.177 222.065 152.529 221.966 151.297 221.346C150.1 220.744 149.338 220.747 147.382 221.357C145.771 221.86 145.061 221.803 143.791 221.065C142.251 220.169 140.792 219.739 138.695 219.565C136.942 219.419 135.99 219.131 135.255 218.525C134.521 217.919 135.182 217.746 136.398 218.227ZM215.414 218.775C216.785 219.122 215.621 219.669 213.282 219.779C211.985 219.839 211.078 219.985 210.406 220.239C209.867 220.443 208.972 220.659 208.417 220.718C206.727 220.9 206.615 220.951 205.907 221.88C204.548 223.661 201.403 224.158 200.804 222.685C200.514 221.976 201.192 221.645 201.901 222.149C202.96 222.904 204.161 222.418 205.607 220.651C206.024 220.142 206.287 220.031 207.787 219.734C208.725 219.547 210.004 219.235 210.629 219.039C211.761 218.683 214.462 218.535 215.414 218.775ZM96.4695 221.149C97.1565 221.795 97.1962 222.476 96.5699 222.862C95.3325 223.625 93.7028 221.975 94.6844 220.953C95.1421 220.476 95.8375 220.552 96.4695 221.149ZM260.094 229.625C268.811 231.959 269.815 232.378 270.722 234.058C271.022 234.613 271.458 235.067 271.982 235.373C272.424 235.63 273.041 236.068 273.354 236.347C273.666 236.624 274.263 236.984 274.68 237.147C276.003 237.661 276.485 238.401 275.874 238.976C275.37 239.451 273.374 238.752 272.019 237.627C271.578 237.259 270.932 236.798 270.583 236.6C270.235 236.404 269.646 235.769 269.274 235.188C268.401 233.831 268.393 233.827 264.516 232.597C262.706 232.023 260.799 231.377 260.278 231.161C259.05 230.651 257.202 230.738 254.724 231.424L252.96 231.911L247.618 231.809C244.679 231.752 241.337 231.628 240.191 231.533C239.045 231.437 235.64 231.354 232.626 231.348C225.618 231.333 223.915 231.066 224.561 230.081C224.754 229.787 234.787 229.796 241.328 230.096C248.994 230.447 252.215 230.332 256.678 229.551C257.923 229.332 259.096 229.358 260.094 229.625ZM142.263 232.487C142.805 232.682 144.303 232.763 148.473 232.822C154.716 232.91 154.943 232.949 156.213 234.164C157.547 235.44 156.594 236.292 155.159 235.105C154.362 234.446 153.822 234.385 147.336 234.227C142.423 234.109 142.188 234.086 141.436 233.68C140.755 233.312 140.483 233.27 139.351 233.352C138.636 233.403 136.942 233.528 135.587 233.628C130.994 233.968 123.298 234.049 122.883 233.763C122.306 233.366 122.945 232.828 124.185 232.665C127.539 232.226 141.166 232.091 142.263 232.487ZM116.217 233.515C116.894 233.728 117.49 234.154 117.49 234.424C117.49 234.685 114.845 234.416 113.662 234.033C112.376 233.618 112.119 233.732 111.069 235.193C109.562 237.287 106.414 238.106 103.855 237.069C101.916 236.284 101.315 236.532 99.5214 238.86C98.2631 240.495 96.1455 240.922 94.7934 239.814C93.9065 239.088 94.3623 238.733 96.0858 238.808L97.4786 238.869L99.0988 237.256C101.017 235.347 101.503 235.172 103.372 235.714C106.141 236.516 108.894 236.095 110.828 234.575C112.765 233.052 113.988 232.811 116.217 233.515ZM217.246 233.765C218.551 234.237 216.382 234.768 212.619 234.898C208.95 235.025 208.762 235.075 207.215 236.336C205.491 237.743 201.77 238.406 200.789 237.482C200.064 236.799 201.047 236.334 203.215 236.334C204.491 236.334 204.839 236.195 206.878 234.878C207.587 234.421 208.464 233.967 208.829 233.868C209.545 233.675 216.753 233.587 217.246 233.765ZM165.667 235.811L166.954 236.532L168.334 236.35C170.445 236.074 171.051 236.334 171.861 237.861C172.608 239.269 171.187 240.36 170.399 238.984C169.754 237.858 169.655 237.819 167.959 238.008C166.497 238.17 166.388 238.158 165.598 237.727C165.142 237.479 164.458 237.181 164.077 237.065C162.671 236.636 162.134 235.872 162.8 235.245C163.329 234.747 164.002 234.88 165.667 235.811ZM252.982 245.468L254.025 245.721L252.603 245.964C249.9 246.425 234.657 246.508 234.549 246.063C234.35 245.234 249.946 244.732 252.982 245.468ZM265.727 245.528C266.795 245.676 268.223 245.955 268.9 246.147C269.578 246.339 270.467 246.546 270.878 246.606C271.467 246.693 271.853 246.939 272.704 247.773C273.925 248.966 274.509 249.091 276.368 248.56C277.894 248.123 278.701 248.203 279.344 248.85C280.787 250.306 279.68 251.808 278.168 250.447C277.834 250.147 277.546 249.9 277.529 249.9C277.511 249.9 277.036 250.029 276.474 250.187C274.763 250.665 273.154 250.474 272.462 249.712C270.904 247.995 270.823 247.937 269.985 247.934C269.545 247.933 268.673 247.783 268.048 247.6C267.422 247.417 265.631 247.133 264.068 246.969C260.195 246.564 255.851 246.002 255.162 245.817L254.593 245.665L255.351 245.536C255.768 245.466 256.194 245.382 256.299 245.348C256.902 245.155 264.015 245.291 265.727 245.528ZM133.906 246.237C137.806 247.103 137.212 248.232 133.234 247.514C132.34 247.352 131.343 247.221 131.02 247.222C130.34 247.223 129.239 246.895 129.239 246.692C129.239 246.01 131.774 245.763 133.906 246.237ZM222.283 246.8C223.69 246.743 226.1 246.643 227.637 246.577C229.503 246.496 230.432 246.517 230.432 246.639C230.432 247.417 224.816 248.049 219.428 247.88C214.573 247.726 210.961 248.379 206.321 250.247C204.52 250.971 203.679 251.116 203.144 250.796C202.734 250.549 203.129 250.025 203.825 249.891C204.128 249.833 205.044 249.489 205.859 249.129C209.855 247.365 215.253 246.348 218.493 246.75C219.171 246.834 220.876 246.856 222.283 246.8ZM153.76 247.476C155.235 247.942 155.307 247.948 158.877 247.835C163.27 247.696 164.611 247.983 166.855 249.543C167.56 250.034 168.209 250.436 168.295 250.436C168.57 250.436 168.87 251.151 168.748 251.514C168.423 252.477 167.4 252.381 166 251.253C164.1 249.726 162.961 249.469 158.316 249.52L154.325 249.564L153.066 248.935L151.806 248.305L146.539 248.28C140.736 248.252 140.609 248.24 140.609 247.75C140.609 246.794 150.919 246.579 153.76 247.476ZM124.88 247.381C124.88 247.677 124.026 247.754 120.684 247.756L117.34 247.758L115.473 248.455C114.445 248.839 112.454 249.408 111.047 249.719C109.64 250.03 107.457 250.514 106.196 250.793C104.018 251.275 102.534 251.82 100.627 252.839C98.3332 254.063 95.1288 252.77 95.1288 250.621C95.1288 249.625 95.973 249.16 96.1919 250.034C96.6514 251.864 98.7246 252.515 100.533 251.399C101.373 250.88 104.002 250.109 105.93 249.815C109.687 249.242 110.911 248.987 113.246 248.288C116.35 247.359 124.88 246.695 124.88 247.381ZM268.806 255.354C269.641 255.638 270.836 255.86 272.036 255.955C274.869 256.179 277.807 257.742 277.807 259.024C277.807 260.089 276.982 260.037 275.367 258.869C274.16 257.997 273.245 257.648 271.364 257.346C270.265 257.168 269.342 256.88 268.458 256.439C266.855 255.637 265.851 255.579 264.902 256.235C263.373 257.292 262.387 257.429 259.74 256.951C258.861 256.792 257.173 256.683 255.6 256.683C253.731 256.683 252.638 256.6 251.905 256.399C250.085 255.9 247.897 256.106 246.079 256.948C244.136 257.846 242.419 257.973 239.738 257.415C236.72 256.788 234.149 256.63 228.878 256.749C225.746 256.819 223.967 256.795 223.893 256.682C223.828 256.583 223.991 256.505 224.262 256.505C224.529 256.505 224.939 256.324 225.173 256.103C225.885 255.433 235.931 255.501 239.336 256.199C242.76 256.9 243.714 256.861 245.851 255.93L247.582 255.176L249.761 255.197C253.848 255.235 259.138 255.56 261.061 255.891L262.979 256.221L264.282 255.662C266.334 254.781 266.98 254.737 268.806 255.354ZM212.527 259.719C213.641 260.118 212.741 260.621 209.588 261.362C208.389 261.644 206.879 262.037 206.234 262.236C204.942 262.633 204.281 262.506 204.281 261.863C204.281 260.816 210.831 259.112 212.527 259.719ZM139.384 261.356C140.793 261.84 145.328 262.057 149.042 261.817C150.757 261.706 151.98 261.722 153.067 261.867C154.571 262.067 154.683 262.057 156.029 261.595C157.861 260.966 161.222 260.98 162.496 261.623C162.913 261.833 163.766 262.261 164.391 262.573L165.528 263.14L168.539 263.08C171.989 263.011 172.461 263.175 171.478 264.101C171.018 264.535 170.849 264.567 168.541 264.663C165.357 264.797 164.517 264.58 162.495 263.109C160.393 261.578 159.053 261.462 156.919 262.624L155.864 263.199L151.979 263.261C141.175 263.436 140.273 263.408 138.725 262.857C137.018 262.248 136.315 262.29 132.935 263.2C127.681 264.614 126.586 264.725 126.586 263.839C126.586 263.308 126.863 263.198 131.039 262.067C135.719 260.801 137.36 260.66 139.384 261.356ZM256.678 281.918C259.765 282.297 260.576 282.65 262.453 284.433C264.364 286.249 263.608 286.506 261.625 284.713C260.143 283.374 259.463 283.101 257.583 283.101C256.772 283.101 255.301 282.976 254.314 282.826C249.245 282.052 230.971 282.594 223.173 283.749C220.678 284.119 219.889 284.178 219.525 284.022C218.325 283.507 219.328 283.105 223.326 282.501C228.286 281.75 229.898 281.659 236.212 281.771C239.576 281.831 242.734 281.802 243.602 281.703C245.948 281.437 253.812 281.566 256.678 281.918ZM214.68 284.284C215.669 284.471 215.382 284.633 212.571 285.48C206.417 287.335 203.523 287.667 203.523 286.519C203.523 285.976 203.899 285.828 205.513 285.734C206.371 285.684 207.959 285.399 209.174 285.076C210.962 284.6 212.142 284.379 213.874 284.195C213.992 284.182 214.354 284.222 214.68 284.284ZM268.524 286.405C269.253 286.76 269.272 287.207 268.558 287.207C268.059 287.207 266.247 286.281 266.247 286.026C266.247 285.832 267.919 286.11 268.524 286.405ZM252.627 292.799C254.105 293.393 254.603 293.49 257.838 293.821C261.905 294.238 262.796 294.515 264.299 295.828C265.539 296.912 266.216 297.202 267.517 297.206C269.162 297.213 271.743 298.742 271.743 299.71C271.743 300.772 270.936 300.801 269.834 299.778C268.923 298.933 268.144 298.643 266.763 298.635C265.732 298.629 264.969 298.275 263.684 297.205C262.097 295.885 261.4 295.638 258.354 295.323C254.972 294.974 253.539 294.646 252.099 293.889C250.737 293.174 249.321 293.097 244.644 293.479C240.768 293.798 238.532 293.452 239.074 292.617C239.315 292.247 242.621 292.062 248.055 292.115C250.986 292.143 250.996 292.145 252.627 292.799ZM230.378 294.461C230.612 295.127 225.109 295.928 223.804 295.42C223.193 295.181 223.075 294.869 223.478 294.555C223.929 294.201 230.256 294.117 230.378 294.461ZM216.479 295.864C216.415 296.336 209.234 298.792 207.479 298.942C206.34 299.04 205.984 298.785 206.602 298.316C207.867 297.356 216.57 295.195 216.479 295.864ZM277.385 302.836C277.938 303.201 277.974 304.247 277.441 304.514C276.985 304.745 276.53 304.591 276.384 304.159C276.323 303.978 275.957 303.734 275.571 303.618C274.488 303.292 274.467 303.147 275.465 302.86C276.681 302.51 276.888 302.507 277.385 302.836ZM131.039 314.457C123.862 314.578 118.522 315.053 114.241 315.951C112.335 316.351 109.509 316.756 107.446 316.925C102.822 317.304 98.8601 318.301 95.2671 319.991C94.5622 320.322 93.6166 320.642 93.1656 320.7C92.4483 320.793 92.3185 320.88 92.1158 321.408C91.9878 321.74 91.6003 322.409 91.2526 322.895C90.3354 324.179 89.3945 325.763 89.5499 325.763C89.6229 325.763 90.9295 325.288 92.4531 324.707C100.785 321.531 105.146 320.726 115.69 320.415C119.129 320.313 123.521 320.146 125.449 320.043C127.377 319.939 133.858 319.735 139.851 319.588C145.844 319.441 153.007 319.247 155.769 319.158C163.436 318.907 169.136 319.226 175.382 320.256C176.007 320.36 178.267 320.485 180.404 320.535C184.747 320.636 185.037 320.567 185.498 319.32L185.704 318.765L184.238 318.868C178.031 319.307 177.544 319.273 167.023 317.636C159.535 316.472 156.857 316.177 146.862 315.417C144.205 315.215 140.964 314.932 139.661 314.787C136.806 314.469 134.803 314.392 131.039 314.457ZM213.756 317.755C207.171 317.921 201.335 318.416 197.175 319.159C195.611 319.439 193.607 319.761 192.721 319.874C190.775 320.123 190.86 320.05 191.598 320.843C192.568 321.881 192.67 321.903 196.511 321.856C200.328 321.808 202.746 321.455 208.253 320.142C212.342 319.166 213.374 319.094 221.336 319.227C225.244 319.293 231.086 319.387 234.317 319.437C256.153 319.775 262.567 320.159 266.948 321.389C268.264 321.759 273.234 322.666 274.775 322.818C275.452 322.885 277.286 323.207 278.849 323.533C280.412 323.859 282.161 324.18 282.734 324.244C283.307 324.308 283.918 324.398 284.092 324.445C284.292 324.497 284.453 324.397 284.529 324.17C284.694 323.68 285.707 323.528 286.896 323.815C287.637 323.994 287.904 323.998 288.08 323.833C288.204 323.716 288.459 323.621 288.646 323.621C289.081 323.621 289.066 323.417 288.533 322.104L288.099 321.033L286.032 320.918C284.895 320.854 283.404 320.675 282.716 320.519C282.029 320.362 280.409 320.153 279.115 320.054C277.823 319.954 276.509 319.835 276.196 319.789C275.883 319.743 274.689 319.62 273.543 319.515C272.397 319.411 270.52 319.17 269.374 318.98C266.092 318.435 262.116 318.239 255.162 318.281C251.618 318.303 246.8 318.225 244.455 318.109C233.687 317.578 224.777 317.475 213.756 317.755Z" fill="white"/>
</g>
<defs>
<filter id="filter0_di" x="-4" y="0" width="387" height="365" filterUnits="userSpaceOnUse" color-interpolation-filters="sRGB">
<feFlood flood-opacity="0" result="BackgroundImageFix"/>
<feColorMatrix in="SourceAlpha" type="matrix" values="0 0 0 0 0 0 0 0 0 0 0 0 0 0 0 0 0 0 127 0"/>
<feOffset dy="4"/>
<feGaussianBlur stdDeviation="2"/>
<feColorMatrix type="matrix" values="0 0 0 0 0 0 0 0 0 0 0 0 0 0 0 0 0 0 0.25 0"/>
<feBlend mode="normal" in2="BackgroundImageFix" result="effect1_dropShadow"/>
<feBlend mode="normal" in="SourceGraphic" in2="effect1_dropShadow" result="shape"/>
<feColorMatrix in="SourceAlpha" type="matrix" values="0 0 0 0 0 0 0 0 0 0 0 0 0 0 0 0 0 0 127 0" result="hardAlpha"/>
<feOffset dy="4"/>
<feGaussianBlur stdDeviation="2"/>
<feComposite in2="hardAlpha" operator="arithmetic" k2="-1" k3="1"/>
<feColorMatrix type="matrix" values="0 0 0 0 0 0 0 0 0 0 0 0 0 0 0 0 0 0 0.25 0"/>
<feBlend mode="normal" in2="shape" result="effect2_innerShadow"/>
</filter>
</defs>
</svg>
