<svg width="393" height="109" viewBox="0 0 393 109" fill="none" xmlns="http://www.w3.org/2000/svg">
<g clip-path="url(#clip0)">
<path d="M47.2058 106.92H12.4894C6.7413 106.92 2.08154 102.263 2.08154 96.519V12.4808C2.08154 6.73667 6.7413 2.08008 12.4894 2.08008H46.5409C67.9869 2.08008 85.5253 19.1608 86.0778 40.5851L86.7426 66.3788C87.3155 88.5982 69.4477 106.92 47.2058 106.92Z" stroke="#EFD82A" stroke-width="5"/>
<path d="M24.6243 62.2823L15.0399 72.6951L13.6706 53.2274V39.6918C13.6706 37.1009 13.9128 34.5158 14.394 31.97L15.0399 28.5532L15.8058 26.0568C16.3574 24.2591 17.1604 22.5483 18.1912 20.9753L18.4063 20.647C19.2014 19.4336 20.1494 18.3274 21.2269 17.3557C23.4519 15.3492 26.1702 13.9691 29.1038 13.3564L30.8976 12.9818C32.4923 12.6488 34.1171 12.481 35.7462 12.481H39.1356C42.5187 12.481 45.8754 13.0751 49.0527 14.2363L49.8937 14.5437C51.902 15.2776 53.7958 16.2927 55.5185 17.5585L56.4385 18.2347C58.185 19.5177 59.6654 21.127 60.7986 22.9734C61.7777 24.5692 62.4822 26.3177 62.8831 28.1463L62.973 28.5567C63.269 29.9086 63.4184 31.3011 63.4184 32.6851C63.4184 34.7345 63.0958 36.7898 62.4618 38.7389L62.0542 39.9927C61.4443 41.8685 60.6366 43.6745 59.6446 45.3798L59.416 45.7734C58.284 47.7192 56.951 49.5405 55.4381 51.208L49.7309 57.4984C48.2093 59.1758 46.5527 60.7259 44.7788 62.1342L37.1754 68.1679L31.2772 73.4868C28.5392 75.956 26.2834 78.9115 24.6243 82.2027H51.8861C54.312 82.2027 56.6484 81.2874 58.4277 79.6399C58.8636 79.2368 59.2607 78.7937 59.615 78.3174L60.6966 76.8609C61.7411 75.4551 62.5084 73.8629 62.9572 72.1705C63.2636 71.016 63.4184 69.827 63.4184 68.6326V68.5211C63.4184 66.6431 63.0575 64.7827 62.3552 63.0407L62.013 62.1925C61.431 60.7484 60.6766 59.3801 59.767 58.1162L57.7137 55.2647L64.3314 48.7002L67.9825 53.2274L68.6906 54.2542C70.1889 56.4263 71.3754 58.7976 72.216 61.2984L72.6848 62.6938C73.3492 64.6699 73.6876 66.7409 73.6876 68.8256C73.6876 69.8944 73.5986 70.9611 73.4216 72.0153L73.1972 73.3496C72.7688 75.9007 71.7872 78.3274 70.3218 80.4595C69.5258 81.6177 68.5953 82.677 67.5491 83.6159L65.6636 85.3084C64.7781 86.103 63.8077 86.7973 62.7698 87.3794C60.3523 88.7348 57.6271 89.4466 54.8549 89.4466H54.2904H12.0732V87.6664C12.0732 85.1099 12.6179 82.5821 13.6709 80.2519C14.5759 78.2491 15.8399 76.429 17.4005 74.881L19.6039 72.6951L30.3294 62.2823L36.0344 57.5283L41.0548 53.2274L44.2497 50.0585L46.706 47.5057C48.2555 45.8953 49.5698 44.0747 50.6097 42.0969L50.9224 41.5029C51.4927 40.4184 51.9469 39.2768 52.2771 38.097L52.3653 37.7824C52.7342 36.465 52.9215 35.1034 52.9215 33.7353V33.3769C52.9215 31.5393 52.5406 29.7215 51.8025 28.0382L51.7604 27.9416C51.0215 26.2563 49.9286 24.7496 48.5556 23.5238C46.9291 22.0715 44.9587 21.0576 42.8309 20.5779L42.564 20.5178C41.5609 20.2916 40.536 20.1775 39.5078 20.1775H37.2564C36.4437 20.1775 35.6329 20.2572 34.8358 20.4153C31.9276 20.9923 29.3216 22.589 27.4879 24.9172L27.0847 25.4292C25.4755 27.4725 24.4592 29.9185 24.1469 32.5L23.2551 39.8717V51.4164L24.6243 62.2823Z" fill="#EFD82A"/>
<path d="M104.704 69.7724V33.9946H116.829C119.706 33.9946 122.224 34.465 124.382 35.4056C126.574 36.3462 128.389 37.6228 129.828 39.2353C131.266 40.8478 132.345 42.7459 133.064 44.9295C133.784 47.0795 134.143 49.3807 134.143 51.8331C134.143 54.5542 133.732 57.0234 132.91 59.2406C132.123 61.4242 130.975 63.3055 129.468 64.8844C127.961 66.4298 126.129 67.6391 123.971 68.5126C121.847 69.3524 119.467 69.7724 116.829 69.7724H104.704ZM131.523 51.8331C131.523 49.5823 131.198 47.5163 130.547 45.635C129.896 43.7201 128.937 42.074 127.67 40.6967C126.437 39.3193 124.913 38.2443 123.097 37.4716C121.282 36.699 119.193 36.3126 116.829 36.3126H107.325V67.4544H116.829C119.227 67.4544 121.333 67.068 123.149 66.2954C124.998 65.4891 126.54 64.3805 127.773 62.9696C129.006 61.5586 129.93 59.9125 130.547 58.0312C131.198 56.1164 131.523 54.0503 131.523 51.8331ZM147.136 70.2763C145.903 70.2763 144.756 70.0747 143.694 69.6716C142.632 69.2349 141.69 68.6638 140.868 67.9583C140.08 67.2192 139.464 66.3626 139.018 65.3883C138.573 64.3805 138.351 63.3055 138.351 62.1633C138.351 61.0211 138.625 59.9797 139.173 59.0391C139.721 58.0984 140.474 57.2922 141.433 56.6203C142.426 55.9148 143.608 55.3773 144.978 55.0078C146.348 54.6046 147.855 54.4031 149.499 54.4031C150.938 54.4031 152.377 54.5374 153.815 54.8062C155.288 55.0414 156.607 55.3773 157.771 55.814V53.2441C157.771 50.7581 157.052 48.7928 155.613 47.3483C154.175 45.8702 152.222 45.1311 149.756 45.1311C148.455 45.1311 147.068 45.3998 145.595 45.9373C144.156 46.4749 142.683 47.2475 141.176 48.2553L140.2 46.542C143.625 44.2576 146.879 43.1154 149.962 43.1154C153.181 43.1154 155.716 44.0393 157.566 45.887C159.415 47.701 160.34 50.2206 160.34 53.4456V66.245C160.34 67.0848 160.717 67.5048 161.47 67.5048V69.7724C161.299 69.806 161.111 69.8228 160.905 69.8228C160.734 69.8564 160.58 69.8732 160.443 69.8732C159.758 69.8732 159.21 69.6548 158.799 69.2181C158.388 68.7478 158.148 68.1935 158.079 67.5552V65.3883C156.846 66.9673 155.271 68.1767 153.353 69.0165C151.435 69.8564 149.362 70.2763 147.136 70.2763ZM147.65 68.2606C149.636 68.2606 151.452 67.8911 153.096 67.152C154.774 66.413 156.059 65.4387 156.949 64.2293C157.497 63.5239 157.771 62.852 157.771 62.2137V57.5777C156.538 57.1074 155.254 56.7547 153.918 56.5195C152.582 56.2843 151.195 56.1668 149.756 56.1668C148.42 56.1668 147.205 56.3179 146.109 56.6203C145.012 56.889 144.071 57.2754 143.283 57.7793C142.495 58.2832 141.878 58.9047 141.433 59.6437C141.022 60.3492 140.817 61.1387 140.817 62.0121C140.817 62.8856 140.988 63.7086 141.33 64.4813C141.673 65.254 142.152 65.9258 142.769 66.4969C143.386 67.0345 144.105 67.4712 144.927 67.8071C145.783 68.1095 146.691 68.2606 147.65 68.2606ZM168.36 32.9868H170.981V64.5821C170.981 65.5563 171.255 66.329 171.803 66.9001C172.385 67.4712 173.173 67.7567 174.166 67.7567C174.543 67.7567 174.988 67.7231 175.502 67.6559C176.05 67.5552 176.547 67.4208 176.992 67.2528L177.506 69.2685C176.923 69.5036 176.204 69.6884 175.348 69.8228C174.491 69.9907 173.755 70.0747 173.139 70.0747C171.7 70.0747 170.535 69.6548 169.645 68.8149C168.789 67.9415 168.36 66.7825 168.36 65.338V32.9868ZM192.805 70.2763C190.921 70.2763 189.175 69.9235 187.565 69.2181C185.955 68.479 184.551 67.488 183.352 66.245C182.187 64.9684 181.263 63.5071 180.577 61.861C179.927 60.2148 179.601 58.4512 179.601 56.5699C179.601 54.7222 179.927 52.9921 180.577 51.3796C181.263 49.7335 182.187 48.3057 183.352 47.0963C184.516 45.8534 185.886 44.8791 187.462 44.1737C189.072 43.4682 190.802 43.1154 192.651 43.1154C194.535 43.1154 196.282 43.485 197.892 44.224C199.501 44.9295 200.889 45.9038 202.053 47.1467C203.218 48.3561 204.125 49.7839 204.776 51.43C205.427 53.0425 205.752 54.7558 205.752 56.5699C205.752 56.7379 205.752 56.9562 205.752 57.225C205.752 57.4601 205.735 57.6113 205.701 57.6785H182.273C182.376 59.1902 182.735 60.6012 183.352 61.9114C183.968 63.1879 184.739 64.2965 185.664 65.2372C186.623 66.1778 187.719 66.9169 188.952 67.4544C190.185 67.9919 191.504 68.2606 192.908 68.2606C193.833 68.2606 194.74 68.1431 195.631 67.9079C196.521 67.6391 197.344 67.2864 198.097 66.8497C198.885 66.413 199.57 65.8923 200.152 65.2876C200.769 64.6493 201.248 63.9606 201.591 63.2215L203.851 63.8262C203.475 64.7668 202.909 65.6403 202.156 66.4466C201.437 67.2192 200.58 67.8911 199.587 68.4622C198.628 69.0333 197.566 69.47 196.402 69.7724C195.237 70.1083 194.038 70.2763 192.805 70.2763ZM203.286 55.6628C203.183 54.1175 202.824 52.7066 202.207 51.43C201.625 50.1534 200.854 49.0616 199.895 48.1546C198.97 47.2139 197.892 46.4917 196.659 45.9877C195.425 45.4502 194.107 45.1815 192.702 45.1815C191.298 45.1815 189.979 45.4502 188.746 45.9877C187.513 46.4917 186.417 47.2139 185.458 48.1546C184.534 49.0616 183.78 50.1702 183.198 51.4804C182.65 52.757 182.324 54.1511 182.222 55.6628H203.286ZM233.239 69.7724H230.67V55.1589C230.67 51.7659 230.174 49.2968 229.181 47.7514C228.221 46.2061 226.68 45.4334 224.557 45.4334C223.426 45.4334 222.296 45.635 221.166 46.0381C220.07 46.4413 219.042 47.0124 218.083 47.7514C217.124 48.4905 216.285 49.3639 215.566 50.3718C214.846 51.346 214.315 52.4042 213.973 53.5464V69.7724H211.404V43.569H213.819V49.8175C214.367 48.8096 215.035 47.9026 215.822 47.0963C216.645 46.2565 217.552 45.551 218.545 44.9799C219.573 44.3752 220.652 43.9217 221.782 43.6194C222.913 43.2834 224.077 43.1154 225.276 43.1154C228.187 43.1154 230.242 44.1233 231.441 46.1389C232.64 48.121 233.239 50.9765 233.239 54.7054V69.7724ZM247.582 70.2763C246.349 70.2763 245.202 70.0747 244.14 69.6716C243.078 69.2349 242.136 68.6638 241.314 67.9583C240.527 67.2192 239.91 66.3626 239.465 65.3883C239.02 64.3805 238.797 63.3055 238.797 62.1633C238.797 61.0211 239.071 59.9797 239.619 59.0391C240.167 58.0984 240.921 57.2922 241.88 56.6203C242.873 55.9148 244.055 55.3773 245.425 55.0078C246.795 54.6046 248.302 54.4031 249.946 54.4031C251.384 54.4031 252.823 54.5374 254.261 54.8062C255.734 55.0414 257.053 55.3773 258.217 55.814V53.2441C258.217 50.7581 257.498 48.7928 256.06 47.3483C254.621 45.8702 252.669 45.1311 250.202 45.1311C248.901 45.1311 247.514 45.3998 246.041 45.9373C244.603 46.4749 243.13 47.2475 241.623 48.2553L240.647 46.542C244.072 44.2576 247.326 43.1154 250.408 43.1154C253.628 43.1154 256.162 44.0393 258.012 45.887C259.861 47.701 260.786 50.2206 260.786 53.4456V66.245C260.786 67.0848 261.163 67.5048 261.917 67.5048V69.7724C261.745 69.806 261.557 69.8228 261.351 69.8228C261.18 69.8564 261.026 69.8732 260.889 69.8732C260.204 69.8732 259.656 69.6548 259.245 69.2181C258.834 68.7478 258.594 68.1935 258.526 67.5552V65.3883C257.293 66.9673 255.717 68.1767 253.799 69.0165C251.881 69.8564 249.809 70.2763 247.582 70.2763ZM248.096 68.2606C250.083 68.2606 251.898 67.8911 253.542 67.152C255.22 66.413 256.505 65.4387 257.395 64.2293C257.943 63.5239 258.217 62.852 258.217 62.2137V57.5777C256.984 57.1074 255.7 56.7547 254.364 56.5195C253.028 56.2843 251.641 56.1668 250.202 56.1668C248.867 56.1668 247.651 56.3179 246.555 56.6203C245.459 56.889 244.517 57.2754 243.729 57.7793C242.941 58.2832 242.325 58.9047 241.88 59.6437C241.469 60.3492 241.263 61.1387 241.263 62.0121C241.263 62.8856 241.434 63.7086 241.777 64.4813C242.119 65.254 242.599 65.9258 243.215 66.4969C243.832 67.0345 244.551 67.4712 245.373 67.8071C246.229 68.1095 247.137 68.2606 248.096 68.2606ZM309.437 60.5004C309.437 61.8106 309.181 63.0368 308.667 64.179C308.153 65.2876 307.451 66.2618 306.56 67.1016C305.67 67.9415 304.625 68.5966 303.426 69.0669C302.228 69.5372 300.96 69.7724 299.624 69.7724H282.567V33.9946H299.573C300.84 33.9946 301.988 34.2634 303.015 34.8009C304.043 35.3384 304.916 36.0439 305.636 36.9173C306.355 37.7572 306.903 38.7314 307.28 39.84C307.691 40.915 307.896 42.0068 307.896 43.1154C307.896 44.9295 307.434 46.5924 306.509 48.1042C305.584 49.6159 304.3 50.7245 302.656 51.43C304.745 52.0347 306.389 53.1769 307.588 54.8566C308.821 56.5027 309.437 58.384 309.437 60.5004ZM306.817 60.1477C306.817 59.207 306.646 58.3 306.303 57.4265C305.961 56.5195 305.481 55.73 304.865 55.0581C304.248 54.3527 303.512 53.7984 302.656 53.3952C301.834 52.9921 300.943 52.7905 299.984 52.7905H285.188V67.4544H299.624C300.652 67.4544 301.594 67.2528 302.45 66.8497C303.341 66.4466 304.094 65.909 304.711 65.2372C305.362 64.5317 305.875 63.7422 306.252 62.8688C306.629 61.9953 306.817 61.0883 306.817 60.1477ZM285.188 36.3126V50.6237H298.546C299.539 50.6237 300.447 50.4222 301.269 50.019C302.091 49.6159 302.793 49.0952 303.375 48.4569C303.992 47.785 304.471 47.0124 304.814 46.1389C305.156 45.2655 305.327 44.3752 305.327 43.4682C305.327 42.494 305.156 41.5869 304.814 40.7471C304.505 39.8736 304.06 39.1177 303.478 38.4795C302.93 37.8076 302.262 37.2869 301.474 36.9173C300.686 36.5142 299.813 36.3126 298.854 36.3126H285.188ZM324.085 70.2763C318.4 70.2763 315.557 66.413 315.557 58.6863V43.569H318.126V58.3336C318.126 64.7836 320.369 68.0087 324.856 68.0087C325.986 68.0087 327.082 67.8239 328.144 67.4544C329.206 67.0513 330.199 66.5137 331.124 65.8419C332.049 65.1364 332.854 64.2965 333.539 63.3223C334.258 62.3481 334.823 61.2731 335.234 60.0973V43.569H337.803V66.245C337.803 67.0848 338.163 67.5048 338.882 67.5048V69.7724C338.711 69.806 338.556 69.8228 338.419 69.8228C338.282 69.8228 338.18 69.8228 338.111 69.8228C337.426 69.8228 336.81 69.6212 336.262 69.2181C335.748 68.7813 335.491 68.2103 335.491 67.5048V63.5743C334.326 65.6907 332.717 67.3368 330.662 68.5126C328.641 69.6884 326.449 70.2763 324.085 70.2763ZM345.968 69.7724V43.569H348.536V69.7724H345.968ZM345.968 37.6228V32.9868H348.536V37.6228H345.968Z" fill="#B1B5B4"/>
</g>
<defs>
<clipPath id="clip0">
<rect width="393" height="109" fill="white"/>
</clipPath>
</defs>
</svg>
