<svg width="255" height="278" viewBox="0 0 255 278" fill="none" xmlns="http://www.w3.org/2000/svg">
<path fill-rule="evenodd" clip-rule="evenodd" d="M171.131 60.5309C170.894 60.9492 164.589 79.6218 157.12 102.025C148.771 127.071 143.091 143.138 142.374 143.743C140.012 145.732 128.016 151.653 127.527 151.07C127.249 150.738 125.654 145.932 123.984 140.39C117.852 120.045 115.292 117.04 105.458 118.647L103.499 118.967L100.522 132.632C98.8852 140.148 97.2335 148.115 96.851 150.338L96.1555 154.379L71.8246 154.161C47.3663 153.941 40.8 154.332 40.8 156.009C40.8 157.618 53.9064 163.666 83.1938 175.573C93.0113 179.565 101.412 183.054 101.863 183.329C102.314 183.603 104.349 188.049 106.387 193.21C116.526 218.882 116.874 219.39 121.125 214.755C123.443 212.228 123.676 212.117 123.684 213.539C123.715 219.031 124.881 219.306 130.164 215.066C132.332 213.326 135.99 210.786 138.294 209.422C140.597 208.058 143.258 206.355 144.208 205.637C145.713 204.498 146.341 204.427 149.133 205.08C154.806 206.406 153.609 208.928 160.331 181.493C161.208 177.915 161.925 174.006 161.926 172.805C161.926 170.784 162.316 170.393 167.185 167.534C185.314 156.888 214.838 137.173 214.838 135.712C214.838 134.511 213.643 134.742 197.625 139.037C186.623 141.988 167.168 146.645 165.844 146.645C165.343 146.645 166.629 130.398 170.522 87.5698C173.178 58.3597 173.212 56.8606 171.131 60.5309ZM168.338 90.7696C166.243 113.684 163.838 142.936 163.838 145.51C163.838 148.875 157.386 149.302 151.668 146.314C149.09 144.967 146.58 143.865 146.091 143.865C144.96 143.865 144.315 146.006 154.78 115.022C159.687 100.497 165.095 84.3402 166.797 79.1193C168.5 73.8978 169.972 69.7083 170.066 69.8084C170.161 69.9092 169.383 79.3417 168.338 90.7696ZM111.617 124.231C107.485 135.58 97.9175 156.957 98.4747 153.595C99.7325 146.001 100.469 142.343 102.372 134.223C103.57 129.111 104.55 124.03 104.55 122.929C104.55 120.932 104.555 120.93 108.684 120.93H112.819L111.617 124.231ZM116.648 125.857C117.313 127.228 119.479 133.483 121.46 139.757C126.451 155.56 130.836 167.347 134.665 175.245L137.917 181.954L133.674 191.925C131.34 197.41 128.58 204.399 127.54 207.457C126.5 210.515 125.635 212.828 125.619 212.598C125.602 212.367 125.023 208.145 124.334 203.215C123.645 198.285 122.051 184.244 120.792 172.012C117.551 140.523 115.862 127.703 114.909 127.358C114.355 127.157 114.113 127.97 114.113 130.029C114.113 132.228 113.56 133.899 111.969 136.517C110.791 138.456 108.91 141.66 107.79 143.638C104.079 150.193 103.89 148.986 107.374 140.985C109.265 136.644 111.621 130.532 112.609 127.402C113.728 123.861 114.6 122.024 114.922 122.537C115.205 122.991 115.982 124.485 116.648 125.857ZM118.263 168.537C119.87 185.393 122.165 205.683 122.706 207.805C122.852 208.378 121.982 210.072 120.773 211.57C119.564 213.067 118.575 213.837 118.575 213.281C118.575 212.725 118.167 208.685 117.669 204.303C116.534 194.337 115.488 173.005 115.198 153.942C114.934 136.523 115.442 138.943 118.263 168.537ZM205.562 140.34C204.777 141.178 168.454 164.254 164.371 166.51C161.017 168.363 145.576 177.966 143.053 179.769C141.839 180.635 142.467 179 146.067 171.921C148.568 167.002 151.548 160.788 152.69 158.112C155.783 150.866 155.844 150.811 161.631 150.046C165.954 149.475 176.793 146.903 199.538 141.051C205.21 139.592 206.395 139.452 205.562 140.34ZM112.838 148.423V154.985H107.355H101.872L105.133 151.096C106.926 148.956 109.134 145.829 110.038 144.146C112.296 139.947 112.838 140.776 112.838 148.423ZM149.007 147.748C151.378 149.118 153.396 150.323 153.49 150.424C153.652 150.599 147.674 163.439 142.388 174.266C141.037 177.034 139.701 179.301 139.42 179.304C138.89 179.31 130.941 161.678 129.207 156.653L128.224 153.803L132.246 152.002C134.458 151.011 138.097 149.092 140.331 147.736C145.196 144.784 143.876 144.782 149.007 147.748ZM82.3338 156.375H95.6251V158.807C95.6251 161.787 96.3716 161.874 98.5945 159.155C100.845 156.401 112.838 155.826 112.838 158.472C112.838 159.547 106.43 174.583 105.489 175.716C105.062 176.23 89.6268 171.283 70.1582 164.392C58.7814 160.365 49.0276 157.01 48.4832 156.937C46.0658 156.612 60.0902 155.886 64.3244 156.118C66.9191 156.259 75.0236 156.375 82.3338 156.375ZM79.6876 170.117C87.226 172.805 95.7608 175.694 98.6532 176.537C104.03 178.106 104.285 178.288 103.359 179.88C102.871 180.72 68.2546 167.533 65.0251 165.278C63.8113 164.43 62.7906 164.093 79.6876 170.117ZM114.126 185.217C114.501 192.48 114.941 199.673 115.104 201.202C115.266 202.731 114.255 199.529 112.857 194.085C111.459 188.642 109.593 182.634 108.71 180.736L107.106 177.284L109.334 173.258C110.56 171.044 111.921 168.138 112.359 166.8L113.156 164.367L113.3 168.19C113.379 170.292 113.751 177.955 114.126 185.217ZM159.725 174.271C159.233 177.256 152.992 202.46 152.648 202.849C152.524 202.991 151.132 202.897 149.556 202.639L146.691 202.17L144.67 196.474C142.05 189.089 140.705 184.142 141.178 183.626C141.561 183.208 159.503 171.809 159.924 171.716C160.051 171.688 159.961 172.838 159.725 174.271ZM109.553 190.613C113.471 204.063 112.444 203.376 106.714 188.713C104.313 182.567 104.218 182.035 105.311 180.844C106.223 179.848 106.814 181.208 109.553 190.613ZM140.573 191.056C141.188 193.12 142.337 196.54 143.127 198.657L144.563 202.504L139.06 205.932C136.033 207.817 132.316 210.265 130.801 211.372C127.438 213.83 127.338 214.352 132.936 200.16C139.331 183.947 138.686 184.716 140.573 191.056Z" fill="#1F8B95"/>
</svg>
