<svg width="222" height="160" viewBox="0 0 222 160" fill="none" xmlns="http://www.w3.org/2000/svg">
<path fill-rule="evenodd" clip-rule="evenodd" d="M55.5878 1.44861C55.8894 1.86992 63.9082 20.6728 73.4076 43.2324C84.0266 68.4529 91.2501 84.632 92.163 85.2409C95.1662 87.2446 110.424 93.2066 111.046 92.6194C111.399 92.2856 113.427 87.4461 115.551 81.8648C123.351 61.3781 126.607 58.352 139.113 59.97L141.606 60.2927L145.391 74.0531C147.473 81.6213 149.574 89.6444 150.061 91.8825L150.945 95.9514L181.89 95.7317C212.998 95.5105 221.349 95.9045 221.349 97.5933C221.349 99.2134 204.68 105.303 167.431 117.294C154.944 121.313 144.259 124.827 143.686 125.104C143.113 125.379 140.524 129.857 137.932 135.053C125.037 160.904 124.595 161.416 119.188 156.749C116.24 154.204 115.944 154.093 115.933 155.524C115.894 161.055 114.411 161.332 107.692 157.062C104.935 155.31 100.282 152.753 97.3522 151.379C94.4227 150.005 91.0385 148.29 89.8304 147.567C87.9153 146.42 87.1166 146.349 83.5661 147.006C76.3508 148.342 77.8735 150.881 69.3236 123.255C68.2087 119.652 67.2966 115.715 67.2957 114.507C67.2949 112.471 66.7987 112.077 60.6066 109.199C37.5499 98.4786 1.52588e-05 78.6252 1.52588e-05 77.1549C1.52588e-05 75.9448 1.51945 76.1772 21.8917 80.5022C35.8845 83.4738 60.6285 88.1635 62.3117 88.1635C62.9498 88.1635 61.3137 71.8038 56.3621 28.6763C52.9843 -0.737717 52.9413 -2.24729 55.5878 1.44861ZM59.1399 31.8984C61.805 54.9724 64.8642 84.4291 64.8642 87.0206C64.8642 90.4093 73.0695 90.839 80.3423 87.8304C83.6212 86.4741 86.8134 85.3641 87.4352 85.3641C88.8736 85.3641 89.6941 87.5203 76.384 56.3203C70.1433 41.6935 63.2652 25.4241 61.0996 20.1668C58.9339 14.9088 57.0626 10.6901 56.9426 10.7909C56.8218 10.8924 57.811 20.3907 59.1399 31.8984ZM131.28 65.5933C136.536 77.0212 148.704 98.5479 147.996 95.162C146.396 87.5154 145.459 83.8321 143.039 75.6551C141.516 70.5077 140.269 65.3904 140.269 64.2825C140.269 62.2711 140.263 62.269 135.011 62.269H129.752L131.28 65.5933ZM124.882 67.2303C124.036 68.6111 121.281 74.9097 118.761 81.2273C112.414 97.1412 106.837 109.011 101.967 116.964L97.8314 123.719L103.227 133.76C106.196 139.283 109.706 146.321 111.029 149.4C112.351 152.48 113.451 154.809 113.473 154.576C113.494 154.344 114.23 150.092 115.106 145.128C115.983 140.164 118.011 126.025 119.611 113.708C123.733 81.9985 125.881 69.0898 127.093 68.742C127.798 68.5397 128.107 69.3585 128.107 71.4322C128.107 73.6458 128.809 75.3289 130.833 77.9646C132.332 79.9172 134.724 83.1442 136.147 85.1352C140.868 91.7369 141.109 90.5213 136.677 82.4646C134.272 78.0933 131.276 71.9382 130.019 68.7868C128.596 65.2203 127.486 63.3706 127.078 63.8878C126.718 64.3448 125.729 65.8488 124.882 67.2303ZM122.828 110.209C120.784 127.182 117.865 147.614 117.177 149.75C116.991 150.328 118.097 152.033 119.635 153.541C121.173 155.049 122.431 155.824 122.431 155.264C122.431 154.704 122.95 150.636 123.584 146.224C125.026 136.189 126.357 114.708 126.726 95.5119C127.062 77.9709 126.416 80.4077 122.828 110.209ZM11.7972 81.8151C12.7953 82.6585 58.9923 105.896 64.1863 108.167C68.452 110.033 88.0904 119.704 91.2987 121.518C92.8425 122.391 92.0439 120.744 87.4661 113.616C84.2853 108.663 80.4948 102.405 79.0418 99.711C75.1078 92.4137 75.0308 92.3584 67.6712 91.5885C62.1723 91.0133 48.3862 88.4231 19.4593 82.5304C12.2448 81.0614 10.7375 80.92 11.7972 81.8151ZM129.728 89.9544V96.5617H136.701H143.675L139.528 92.6453C137.247 90.4912 134.439 87.3419 133.289 85.6468C130.417 81.419 129.728 82.2533 129.728 89.9544ZM83.7267 89.2742C80.7105 90.6543 78.1443 91.8671 78.0251 91.9693C77.8183 92.1456 85.422 105.075 92.1444 115.977C93.8625 118.765 95.5619 121.048 95.9195 121.051C96.5933 121.056 106.703 103.302 108.909 98.2413L110.159 95.3712L105.043 93.5579C102.23 92.5606 97.6027 90.6277 94.7608 89.2623C88.5728 86.2893 90.252 86.2879 83.7267 89.2742ZM168.524 97.9614H151.62V100.411C151.62 103.411 150.67 103.499 147.843 100.761C144.981 97.988 129.728 97.4085 129.728 100.073C129.728 101.155 137.878 116.297 139.074 117.437C139.618 117.955 159.249 112.974 184.01 106.034C198.479 101.979 210.885 98.601 211.577 98.5276C214.652 98.2 196.815 97.4694 191.429 97.7024C188.13 97.8445 177.822 97.9614 168.524 97.9614ZM171.89 111.799C162.302 114.506 151.447 117.415 147.769 118.265C140.93 119.844 140.605 120.028 141.783 121.631C142.404 122.476 186.431 109.197 190.538 106.926C192.082 106.073 193.38 105.733 171.89 111.799ZM128.09 127.005C127.612 134.319 127.053 141.562 126.846 143.102C126.64 144.641 127.926 141.416 129.704 135.935C131.482 130.453 133.855 124.404 134.977 122.493L137.018 119.016L134.184 114.962C132.625 112.733 130.893 109.806 130.336 108.459L129.323 106.01L129.14 109.859C129.04 111.976 128.566 119.692 128.09 127.005ZM70.0946 115.983C70.7206 118.988 78.6575 144.368 79.0953 144.76C79.2534 144.903 81.0234 144.808 83.0277 144.548L86.6715 144.077L89.2425 138.341C92.5749 130.904 94.2849 125.922 93.6841 125.403C93.196 124.982 70.3768 113.503 69.8417 113.409C69.6803 113.381 69.7946 114.539 70.0946 115.983ZM133.906 132.438C128.923 145.982 130.229 145.291 137.516 130.525C140.57 124.337 140.691 123.801 139.301 122.601C138.14 121.599 137.39 122.968 133.906 132.438ZM94.4527 132.885C93.6703 134.963 92.2092 138.407 91.2047 140.538L89.3787 144.412L96.3776 147.864C100.227 149.762 104.954 152.228 106.882 153.343C111.159 155.817 111.286 156.343 104.166 142.052C96.033 125.726 96.8535 126.501 94.4527 132.885Z" fill="#EFD82A"/>
</svg>
